<?xml version="1.0" encoding="UTF-8"?>
<svg xmlns="http://www.w3.org/2000/svg" xmlns:xlink="http://www.w3.org/1999/xlink" width="32px" height="32px" viewBox="0 0 32 32" version="1.1">
<g id="surface1">
<path style=" stroke:none;fill-rule:nonzero;fill:rgb(48.627451%,51.764709%,90.588236%);fill-opacity:1;" d="M 7 0 C 7.285156 0.136719 7.429688 0.277344 7.5625 0.5625 C 7.585938 0.765625 7.585938 0.964844 7.582031 1.167969 C 7.582031 1.226562 7.582031 1.28125 7.578125 1.34375 C 7.578125 1.527344 7.578125 1.710938 7.574219 1.894531 C 7.574219 2.019531 7.574219 2.144531 7.570312 2.269531 C 7.570312 2.574219 7.566406 2.882812 7.5625 3.1875 C 8.179688 3.1875 8.800781 3.1875 9.4375 3.1875 C 9.433594 3.003906 9.433594 2.816406 9.429688 2.625 C 9.425781 2.445312 9.425781 2.265625 9.421875 2.085938 C 9.421875 1.960938 9.421875 1.835938 9.417969 1.710938 C 9.414062 1.53125 9.414062 1.351562 9.414062 1.171875 C 9.410156 1.117188 9.410156 1.0625 9.410156 1.003906 C 9.410156 0.660156 9.457031 0.460938 9.6875 0.1875 C 10.015625 -0.0664062 10.351562 -0.046875 10.75 0 C 11.035156 0.136719 11.179688 0.277344 11.3125 0.5625 C 11.335938 0.765625 11.335938 0.964844 11.332031 1.167969 C 11.332031 1.226562 11.332031 1.28125 11.328125 1.34375 C 11.328125 1.527344 11.328125 1.710938 11.324219 1.894531 C 11.324219 2.019531 11.324219 2.144531 11.320312 2.269531 C 11.320312 2.574219 11.316406 2.882812 11.3125 3.1875 C 11.929688 3.1875 12.550781 3.1875 13.1875 3.1875 C 13.183594 3.003906 13.183594 2.816406 13.179688 2.625 C 13.175781 2.445312 13.175781 2.265625 13.171875 2.085938 C 13.171875 1.960938 13.171875 1.835938 13.167969 1.710938 C 13.164062 1.53125 13.164062 1.351562 13.164062 1.171875 C 13.160156 1.117188 13.160156 1.0625 13.160156 1.003906 C 13.160156 0.660156 13.207031 0.460938 13.4375 0.1875 C 13.765625 -0.0664062 14.101562 -0.046875 14.5 0 C 14.785156 0.136719 14.929688 0.277344 15.0625 0.5625 C 15.085938 0.765625 15.085938 0.964844 15.082031 1.167969 C 15.082031 1.226562 15.082031 1.28125 15.078125 1.34375 C 15.078125 1.527344 15.078125 1.710938 15.074219 1.894531 C 15.074219 2.019531 15.074219 2.144531 15.070312 2.269531 C 15.070312 2.574219 15.066406 2.882812 15.0625 3.1875 C 15.679688 3.1875 16.300781 3.1875 16.9375 3.1875 C 16.933594 3.003906 16.933594 2.816406 16.929688 2.625 C 16.925781 2.445312 16.925781 2.265625 16.921875 2.085938 C 16.921875 1.960938 16.921875 1.835938 16.917969 1.710938 C 16.914062 1.53125 16.914062 1.351562 16.914062 1.171875 C 16.910156 1.117188 16.910156 1.0625 16.910156 1.003906 C 16.910156 0.660156 16.957031 0.460938 17.1875 0.1875 C 17.515625 -0.0664062 17.851562 -0.046875 18.25 0 C 18.535156 0.136719 18.679688 0.277344 18.8125 0.5625 C 18.835938 0.765625 18.835938 0.964844 18.832031 1.167969 C 18.832031 1.226562 18.832031 1.28125 18.828125 1.34375 C 18.828125 1.527344 18.828125 1.710938 18.824219 1.894531 C 18.824219 2.019531 18.824219 2.144531 18.820312 2.269531 C 18.820312 2.574219 18.816406 2.882812 18.8125 3.1875 C 19.429688 3.1875 20.050781 3.1875 20.6875 3.1875 C 20.683594 3.003906 20.683594 2.816406 20.679688 2.625 C 20.675781 2.445312 20.675781 2.265625 20.671875 2.085938 C 20.671875 1.960938 20.671875 1.835938 20.667969 1.710938 C 20.664062 1.53125 20.664062 1.351562 20.664062 1.171875 C 20.660156 1.117188 20.660156 1.0625 20.660156 1.003906 C 20.660156 0.660156 20.707031 0.460938 20.9375 0.1875 C 21.265625 -0.0664062 21.601562 -0.046875 22 0 C 22.285156 0.136719 22.429688 0.277344 22.5625 0.5625 C 22.585938 0.765625 22.585938 0.964844 22.582031 1.167969 C 22.582031 1.226562 22.582031 1.28125 22.578125 1.34375 C 22.578125 1.527344 22.578125 1.710938 22.574219 1.894531 C 22.574219 2.019531 22.574219 2.144531 22.570312 2.269531 C 22.570312 2.574219 22.566406 2.882812 22.5625 3.1875 C 23.179688 3.1875 23.800781 3.1875 24.4375 3.1875 C 24.433594 3.003906 24.433594 2.816406 24.429688 2.625 C 24.425781 2.445312 24.425781 2.265625 24.421875 2.085938 C 24.421875 1.960938 24.421875 1.835938 24.417969 1.710938 C 24.414062 1.53125 24.414062 1.351562 24.414062 1.171875 C 24.410156 1.117188 24.410156 1.0625 24.410156 1.003906 C 24.410156 0.660156 24.457031 0.460938 24.6875 0.1875 C 25.015625 -0.0664062 25.351562 -0.046875 25.75 0 C 26.035156 0.136719 26.179688 0.277344 26.3125 0.5625 C 26.335938 0.765625 26.335938 0.964844 26.332031 1.167969 C 26.332031 1.226562 26.332031 1.28125 26.328125 1.34375 C 26.328125 1.527344 26.328125 1.710938 26.324219 1.894531 C 26.324219 2.019531 26.324219 2.144531 26.320312 2.269531 C 26.320312 2.574219 26.316406 2.882812 26.3125 3.1875 C 26.398438 3.183594 26.398438 3.183594 26.484375 3.183594 C 26.695312 3.179688 26.90625 3.175781 27.121094 3.171875 C 27.210938 3.171875 27.300781 3.171875 27.394531 3.167969 C 27.527344 3.164062 27.65625 3.164062 27.789062 3.164062 C 27.910156 3.160156 27.910156 3.160156 28.03125 3.160156 C 28.351562 3.199219 28.539062 3.328125 28.742188 3.582031 C 28.832031 3.796875 28.832031 3.96875 28.832031 4.203125 C 28.832031 4.246094 28.832031 4.289062 28.828125 4.332031 C 28.828125 4.46875 28.828125 4.601562 28.824219 4.738281 C 28.824219 4.832031 28.824219 4.921875 28.820312 5.015625 C 28.820312 5.238281 28.816406 5.464844 28.8125 5.6875 C 28.890625 5.6875 28.96875 5.683594 29.046875 5.683594 C 29.335938 5.679688 29.625 5.675781 29.914062 5.671875 C 30.039062 5.671875 30.164062 5.671875 30.289062 5.667969 C 30.46875 5.664062 30.648438 5.664062 30.828125 5.664062 C 30.910156 5.660156 30.910156 5.660156 30.996094 5.660156 C 31.339844 5.660156 31.539062 5.707031 31.8125 5.9375 C 32.066406 6.265625 32.046875 6.601562 32 7 C 31.863281 7.285156 31.722656 7.429688 31.4375 7.5625 C 31.234375 7.585938 31.035156 7.585938 30.832031 7.582031 C 30.773438 7.582031 30.71875 7.582031 30.65625 7.578125 C 30.472656 7.578125 30.289062 7.578125 30.105469 7.574219 C 29.980469 7.574219 29.855469 7.574219 29.730469 7.570312 C 29.425781 7.570312 29.117188 7.566406 28.8125 7.5625 C 28.8125 8.179688 28.8125 8.800781 28.8125 9.4375 C 28.996094 9.433594 29.183594 9.433594 29.375 9.429688 C 29.554688 9.425781 29.734375 9.425781 29.914062 9.421875 C 30.039062 9.421875 30.164062 9.421875 30.289062 9.417969 C 30.46875 9.414062 30.648438 9.414062 30.828125 9.414062 C 30.910156 9.410156 30.910156 9.410156 30.996094 9.410156 C 31.339844 9.410156 31.539062 9.457031 31.8125 9.6875 C 32.066406 10.015625 32.046875 10.351562 32 10.75 C 31.863281 11.035156 31.722656 11.179688 31.4375 11.3125 C 31.234375 11.335938 31.035156 11.335938 30.832031 11.332031 C 30.773438 11.332031 30.71875 11.332031 30.65625 11.328125 C 30.472656 11.328125 30.289062 11.328125 30.105469 11.324219 C 29.980469 11.324219 29.855469 11.324219 29.730469 11.320312 C 29.425781 11.320312 29.117188 11.316406 28.8125 11.3125 C 28.8125 11.929688 28.8125 12.550781 28.8125 13.1875 C 28.996094 13.183594 29.183594 13.183594 29.375 13.179688 C 29.554688 13.175781 29.734375 13.175781 29.914062 13.171875 C 30.039062 13.171875 30.164062 13.171875 30.289062 13.167969 C 30.46875 13.164062 30.648438 13.164062 30.828125 13.164062 C 30.910156 13.160156 30.910156 13.160156 30.996094 13.160156 C 31.339844 13.160156 31.539062 13.207031 31.8125 13.4375 C 32.066406 13.765625 32.046875 14.101562 32 14.5 C 31.863281 14.785156 31.722656 14.929688 31.4375 15.0625 C 31.234375 15.085938 31.035156 15.085938 30.832031 15.082031 C 30.773438 15.082031 30.71875 15.082031 30.65625 15.078125 C 30.472656 15.078125 30.289062 15.078125 30.105469 15.074219 C 29.980469 15.074219 29.855469 15.074219 29.730469 15.070312 C 29.425781 15.070312 29.117188 15.066406 28.8125 15.0625 C 28.8125 15.679688 28.8125 16.300781 28.8125 16.9375 C 28.996094 16.933594 29.183594 16.933594 29.375 16.929688 C 29.554688 16.925781 29.734375 16.925781 29.914062 16.921875 C 30.039062 16.921875 30.164062 16.921875 30.289062 16.917969 C 30.46875 16.914062 30.648438 16.914062 30.828125 16.914062 C 30.910156 16.910156 30.910156 16.910156 30.996094 16.910156 C 31.339844 16.910156 31.539062 16.957031 31.8125 17.1875 C 32.066406 17.515625 32.046875 17.851562 32 18.25 C 31.863281 18.535156 31.722656 18.679688 31.4375 18.8125 C 31.234375 18.835938 31.035156 18.835938 30.832031 18.832031 C 30.773438 18.832031 30.71875 18.832031 30.65625 18.828125 C 30.472656 18.828125 30.289062 18.828125 30.105469 18.824219 C 29.980469 18.824219 29.855469 18.824219 29.730469 18.820312 C 29.425781 18.820312 29.117188 18.816406 28.8125 18.8125 C 28.8125 19.429688 28.8125 20.050781 28.8125 20.6875 C 28.996094 20.683594 29.183594 20.683594 29.375 20.679688 C 29.554688 20.675781 29.734375 20.675781 29.914062 20.671875 C 30.039062 20.671875 30.164062 20.671875 30.289062 20.667969 C 30.46875 20.664062 30.648438 20.664062 30.828125 20.664062 C 30.910156 20.660156 30.910156 20.660156 30.996094 20.660156 C 31.339844 20.660156 31.539062 20.707031 31.8125 20.9375 C 32.066406 21.265625 32.046875 21.601562 32 22 C 31.863281 22.285156 31.722656 22.429688 31.4375 22.5625 C 31.234375 22.585938 31.035156 22.585938 30.832031 22.582031 C 30.773438 22.582031 30.71875 22.582031 30.65625 22.578125 C 30.472656 22.578125 30.289062 22.578125 30.105469 22.574219 C 29.980469 22.574219 29.855469 22.574219 29.730469 22.570312 C 29.425781 22.570312 29.117188 22.566406 28.8125 22.5625 C 28.8125 23.179688 28.8125 23.800781 28.8125 24.4375 C 28.996094 24.433594 29.183594 24.433594 29.375 24.429688 C 29.554688 24.425781 29.734375 24.425781 29.914062 24.421875 C 30.039062 24.421875 30.164062 24.421875 30.289062 24.417969 C 30.46875 24.414062 30.648438 24.414062 30.828125 24.414062 C 30.910156 24.410156 30.910156 24.410156 30.996094 24.410156 C 31.339844 24.410156 31.539062 24.457031 31.8125 24.6875 C 32.066406 25.015625 32.046875 25.351562 32 25.75 C 31.863281 26.035156 31.722656 26.179688 31.4375 26.3125 C 31.234375 26.335938 31.035156 26.335938 30.832031 26.332031 C 30.773438 26.332031 30.71875 26.332031 30.65625 26.328125 C 30.472656 26.328125 30.289062 26.328125 30.105469 26.324219 C 29.980469 26.324219 29.855469 26.324219 29.730469 26.320312 C 29.425781 26.320312 29.117188 26.316406 28.8125 26.3125 C 28.8125 26.371094 28.816406 26.425781 28.816406 26.484375 C 28.820312 26.695312 28.824219 26.90625 28.828125 27.121094 C 28.828125 27.210938 28.828125 27.300781 28.832031 27.394531 C 28.835938 27.527344 28.835938 27.65625 28.835938 27.789062 C 28.839844 27.867188 28.839844 27.949219 28.839844 28.03125 C 28.800781 28.351562 28.671875 28.539062 28.417969 28.742188 C 28.203125 28.832031 28.03125 28.832031 27.796875 28.832031 C 27.753906 28.832031 27.710938 28.832031 27.667969 28.828125 C 27.53125 28.828125 27.398438 28.828125 27.261719 28.824219 C 27.167969 28.824219 27.078125 28.824219 26.984375 28.820312 C 26.761719 28.820312 26.535156 28.816406 26.3125 28.8125 C 26.3125 28.890625 26.316406 28.96875 26.316406 29.046875 C 26.320312 29.335938 26.324219 29.625 26.328125 29.914062 C 26.328125 30.039062 26.328125 30.164062 26.332031 30.289062 C 26.335938 30.46875 26.335938 30.648438 26.335938 30.828125 C 26.339844 30.882812 26.339844 30.9375 26.339844 30.996094 C 26.339844 31.339844 26.292969 31.539062 26.0625 31.8125 C 25.734375 32.066406 25.398438 32.046875 25 32 C 24.714844 31.863281 24.570312 31.722656 24.4375 31.4375 C 24.414062 31.234375 24.414062 31.035156 24.417969 30.832031 C 24.417969 30.773438 24.417969 30.71875 24.421875 30.65625 C 24.421875 30.472656 24.421875 30.289062 24.425781 30.105469 C 24.425781 29.980469 24.425781 29.855469 24.429688 29.730469 C 24.429688 29.425781 24.433594 29.117188 24.4375 28.8125 C 23.820312 28.8125 23.199219 28.8125 22.5625 28.8125 C 22.566406 28.996094 22.566406 29.183594 22.570312 29.375 C 22.574219 29.554688 22.574219 29.734375 22.578125 29.914062 C 22.578125 30.039062 22.578125 30.164062 22.582031 30.289062 C 22.585938 30.46875 22.585938 30.648438 22.585938 30.828125 C 22.589844 30.882812 22.589844 30.9375 22.589844 30.996094 C 22.589844 31.339844 22.542969 31.539062 22.3125 31.8125 C 21.984375 32.066406 21.648438 32.046875 21.25 32 C 20.964844 31.863281 20.820312 31.722656 20.6875 31.4375 C 20.664062 31.234375 20.664062 31.035156 20.667969 30.832031 C 20.667969 30.773438 20.667969 30.71875 20.671875 30.65625 C 20.671875 30.472656 20.671875 30.289062 20.675781 30.105469 C 20.675781 29.980469 20.675781 29.855469 20.679688 29.730469 C 20.679688 29.425781 20.683594 29.117188 20.6875 28.8125 C 20.070312 28.8125 19.449219 28.8125 18.8125 28.8125 C 18.816406 28.996094 18.816406 29.183594 18.820312 29.375 C 18.824219 29.554688 18.824219 29.734375 18.828125 29.914062 C 18.828125 30.039062 18.828125 30.164062 18.832031 30.289062 C 18.835938 30.46875 18.835938 30.648438 18.835938 30.828125 C 18.839844 30.882812 18.839844 30.9375 18.839844 30.996094 C 18.839844 31.339844 18.792969 31.539062 18.5625 31.8125 C 18.234375 32.066406 17.898438 32.046875 17.5 32 C 17.214844 31.863281 17.070312 31.722656 16.9375 31.4375 C 16.914062 31.234375 16.914062 31.035156 16.917969 30.832031 C 16.917969 30.773438 16.917969 30.71875 16.921875 30.65625 C 16.921875 30.472656 16.921875 30.289062 16.925781 30.105469 C 16.925781 29.980469 16.925781 29.855469 16.929688 29.730469 C 16.929688 29.425781 16.933594 29.117188 16.9375 28.8125 C 16.320312 28.8125 15.699219 28.8125 15.0625 28.8125 C 15.066406 28.996094 15.066406 29.183594 15.070312 29.375 C 15.074219 29.554688 15.074219 29.734375 15.078125 29.914062 C 15.078125 30.039062 15.078125 30.164062 15.082031 30.289062 C 15.085938 30.46875 15.085938 30.648438 15.085938 30.828125 C 15.089844 30.882812 15.089844 30.9375 15.089844 30.996094 C 15.089844 31.339844 15.042969 31.539062 14.8125 31.8125 C 14.484375 32.066406 14.148438 32.046875 13.75 32 C 13.464844 31.863281 13.320312 31.722656 13.1875 31.4375 C 13.164062 31.234375 13.164062 31.035156 13.167969 30.832031 C 13.167969 30.773438 13.167969 30.71875 13.171875 30.65625 C 13.171875 30.472656 13.171875 30.289062 13.175781 30.105469 C 13.175781 29.980469 13.175781 29.855469 13.179688 29.730469 C 13.179688 29.425781 13.183594 29.117188 13.1875 28.8125 C 12.570312 28.8125 11.949219 28.8125 11.3125 28.8125 C 11.316406 28.996094 11.316406 29.183594 11.320312 29.375 C 11.324219 29.554688 11.324219 29.734375 11.328125 29.914062 C 11.328125 30.039062 11.328125 30.164062 11.332031 30.289062 C 11.335938 30.46875 11.335938 30.648438 11.335938 30.828125 C 11.339844 30.882812 11.339844 30.9375 11.339844 30.996094 C 11.339844 31.339844 11.292969 31.539062 11.0625 31.8125 C 10.734375 32.066406 10.398438 32.046875 10 32 C 9.714844 31.863281 9.570312 31.722656 9.4375 31.4375 C 9.414062 31.234375 9.414062 31.035156 9.417969 30.832031 C 9.417969 30.773438 9.417969 30.71875 9.421875 30.65625 C 9.421875 30.472656 9.421875 30.289062 9.425781 30.105469 C 9.425781 29.980469 9.425781 29.855469 9.429688 29.730469 C 9.429688 29.425781 9.433594 29.117188 9.4375 28.8125 C 8.820312 28.8125 8.199219 28.8125 7.5625 28.8125 C 7.566406 28.996094 7.566406 29.183594 7.570312 29.375 C 7.574219 29.554688 7.574219 29.734375 7.578125 29.914062 C 7.578125 30.039062 7.578125 30.164062 7.582031 30.289062 C 7.585938 30.46875 7.585938 30.648438 7.585938 30.828125 C 7.589844 30.882812 7.589844 30.9375 7.589844 30.996094 C 7.589844 31.339844 7.542969 31.539062 7.3125 31.8125 C 6.984375 32.066406 6.648438 32.046875 6.25 32 C 5.964844 31.863281 5.820312 31.722656 5.6875 31.4375 C 5.664062 31.234375 5.664062 31.035156 5.667969 30.832031 C 5.667969 30.773438 5.667969 30.71875 5.671875 30.65625 C 5.671875 30.472656 5.671875 30.289062 5.675781 30.105469 C 5.675781 29.980469 5.675781 29.855469 5.679688 29.730469 C 5.679688 29.425781 5.683594 29.117188 5.6875 28.8125 C 5.628906 28.8125 5.574219 28.816406 5.515625 28.816406 C 5.304688 28.820312 5.09375 28.824219 4.878906 28.828125 C 4.789062 28.828125 4.699219 28.828125 4.605469 28.832031 C 4.472656 28.835938 4.34375 28.835938 4.210938 28.835938 C 4.132812 28.839844 4.050781 28.839844 3.96875 28.839844 C 3.648438 28.800781 3.460938 28.671875 3.257812 28.417969 C 3.167969 28.203125 3.167969 28.03125 3.167969 27.796875 C 3.167969 27.753906 3.167969 27.710938 3.171875 27.667969 C 3.171875 27.53125 3.171875 27.398438 3.175781 27.261719 C 3.175781 27.167969 3.175781 27.078125 3.179688 26.984375 C 3.179688 26.761719 3.183594 26.535156 3.1875 26.3125 C 3.109375 26.3125 3.03125 26.316406 2.953125 26.316406 C 2.664062 26.320312 2.375 26.324219 2.085938 26.328125 C 1.960938 26.328125 1.835938 26.328125 1.710938 26.332031 C 1.53125 26.335938 1.351562 26.335938 1.171875 26.335938 C 1.089844 26.339844 1.089844 26.339844 1.003906 26.339844 C 0.660156 26.339844 0.460938 26.292969 0.1875 26.0625 C -0.0664062 25.734375 -0.046875 25.398438 0 25 C 0.136719 24.714844 0.277344 24.570312 0.5625 24.4375 C 0.765625 24.414062 0.964844 24.414062 1.167969 24.417969 C 1.226562 24.417969 1.28125 24.417969 1.34375 24.421875 C 1.527344 24.421875 1.710938 24.421875 1.894531 24.425781 C 2.019531 24.425781 2.144531 24.425781 2.269531 24.429688 C 2.574219 24.429688 2.882812 24.433594 3.1875 24.4375 C 3.1875 23.820312 3.1875 23.199219 3.1875 22.5625 C 3.003906 22.566406 2.816406 22.566406 2.625 22.570312 C 2.445312 22.574219 2.265625 22.574219 2.085938 22.578125 C 1.960938 22.578125 1.835938 22.578125 1.710938 22.582031 C 1.53125 22.585938 1.351562 22.585938 1.171875 22.585938 C 1.089844 22.589844 1.089844 22.589844 1.003906 22.589844 C 0.660156 22.589844 0.460938 22.542969 0.1875 22.3125 C -0.0664062 21.984375 -0.046875 21.648438 0 21.25 C 0.136719 20.964844 0.277344 20.820312 0.5625 20.6875 C 0.765625 20.664062 0.964844 20.664062 1.167969 20.667969 C 1.226562 20.667969 1.28125 20.667969 1.34375 20.671875 C 1.527344 20.671875 1.710938 20.671875 1.894531 20.675781 C 2.019531 20.675781 2.144531 20.675781 2.269531 20.679688 C 2.574219 20.679688 2.882812 20.683594 3.1875 20.6875 C 3.1875 20.070312 3.1875 19.449219 3.1875 18.8125 C 3.003906 18.816406 2.816406 18.816406 2.625 18.820312 C 2.445312 18.824219 2.265625 18.824219 2.085938 18.828125 C 1.960938 18.828125 1.835938 18.828125 1.710938 18.832031 C 1.53125 18.835938 1.351562 18.835938 1.171875 18.835938 C 1.089844 18.839844 1.089844 18.839844 1.003906 18.839844 C 0.660156 18.839844 0.460938 18.792969 0.1875 18.5625 C -0.0664062 18.234375 -0.046875 17.898438 0 17.5 C 0.136719 17.214844 0.277344 17.070312 0.5625 16.9375 C 0.765625 16.914062 0.964844 16.914062 1.167969 16.917969 C 1.226562 16.917969 1.28125 16.917969 1.34375 16.921875 C 1.527344 16.921875 1.710938 16.921875 1.894531 16.925781 C 2.019531 16.925781 2.144531 16.925781 2.269531 16.929688 C 2.574219 16.929688 2.882812 16.933594 3.1875 16.9375 C 3.1875 16.320312 3.1875 15.699219 3.1875 15.0625 C 3.003906 15.066406 2.816406 15.066406 2.625 15.070312 C 2.445312 15.074219 2.265625 15.074219 2.085938 15.078125 C 1.960938 15.078125 1.835938 15.078125 1.710938 15.082031 C 1.53125 15.085938 1.351562 15.085938 1.171875 15.085938 C 1.089844 15.089844 1.089844 15.089844 1.003906 15.089844 C 0.660156 15.089844 0.460938 15.042969 0.1875 14.8125 C -0.0664062 14.484375 -0.046875 14.148438 0 13.75 C 0.136719 13.464844 0.277344 13.320312 0.5625 13.1875 C 0.765625 13.164062 0.964844 13.164062 1.167969 13.167969 C 1.226562 13.167969 1.28125 13.167969 1.34375 13.171875 C 1.527344 13.171875 1.710938 13.171875 1.894531 13.175781 C 2.019531 13.175781 2.144531 13.175781 2.269531 13.179688 C 2.574219 13.179688 2.882812 13.183594 3.1875 13.1875 C 3.1875 12.570312 3.1875 11.949219 3.1875 11.3125 C 3.003906 11.316406 2.816406 11.316406 2.625 11.320312 C 2.445312 11.324219 2.265625 11.324219 2.085938 11.328125 C 1.960938 11.328125 1.835938 11.328125 1.710938 11.332031 C 1.53125 11.335938 1.351562 11.335938 1.171875 11.335938 C 1.089844 11.339844 1.089844 11.339844 1.003906 11.339844 C 0.660156 11.339844 0.460938 11.292969 0.1875 11.0625 C -0.0664062 10.734375 -0.046875 10.398438 0 10 C 0.136719 9.714844 0.277344 9.570312 0.5625 9.4375 C 0.765625 9.414062 0.964844 9.414062 1.167969 9.417969 C 1.226562 9.417969 1.28125 9.417969 1.34375 9.421875 C 1.527344 9.421875 1.710938 9.421875 1.894531 9.425781 C 2.019531 9.425781 2.144531 9.425781 2.269531 9.429688 C 2.574219 9.429688 2.882812 9.433594 3.1875 9.4375 C 3.1875 8.820312 3.1875 8.199219 3.1875 7.5625 C 3.003906 7.566406 2.816406 7.566406 2.625 7.570312 C 2.445312 7.574219 2.265625 7.574219 2.085938 7.578125 C 1.960938 7.578125 1.835938 7.578125 1.710938 7.582031 C 1.53125 7.585938 1.351562 7.585938 1.171875 7.585938 C 1.089844 7.589844 1.089844 7.589844 1.003906 7.589844 C 0.660156 7.589844 0.460938 7.542969 0.1875 7.3125 C -0.0664062 6.984375 -0.046875 6.648438 0 6.25 C 0.136719 5.964844 0.277344 5.820312 0.5625 5.6875 C 0.765625 5.664062 0.964844 5.664062 1.167969 5.667969 C 1.226562 5.667969 1.28125 5.667969 1.34375 5.671875 C 1.527344 5.671875 1.710938 5.671875 1.894531 5.675781 C 2.019531 5.675781 2.144531 5.675781 2.269531 5.679688 C 2.574219 5.679688 2.882812 5.683594 3.1875 5.6875 C 3.1875 5.628906 3.183594 5.574219 3.183594 5.515625 C 3.179688 5.304688 3.175781 5.09375 3.171875 4.878906 C 3.171875 4.789062 3.171875 4.699219 3.167969 4.605469 C 3.164062 4.472656 3.164062 4.34375 3.164062 4.210938 C 3.160156 4.132812 3.160156 4.050781 3.160156 3.96875 C 3.199219 3.648438 3.328125 3.460938 3.582031 3.257812 C 3.796875 3.167969 3.96875 3.167969 4.203125 3.167969 C 4.269531 3.167969 4.269531 3.167969 4.332031 3.171875 C 4.46875 3.171875 4.601562 3.171875 4.738281 3.175781 C 4.832031 3.175781 4.921875 3.175781 5.015625 3.179688 C 5.238281 3.179688 5.464844 3.183594 5.6875 3.1875 C 5.683594 3.070312 5.683594 3.070312 5.683594 2.953125 C 5.679688 2.664062 5.675781 2.375 5.671875 2.085938 C 5.671875 1.960938 5.671875 1.835938 5.667969 1.710938 C 5.664062 1.53125 5.664062 1.351562 5.664062 1.171875 C 5.660156 1.117188 5.660156 1.0625 5.660156 1.003906 C 5.660156 0.660156 5.707031 0.460938 5.9375 0.1875 C 6.265625 -0.0664062 6.601562 -0.046875 7 0 Z M 7 0 "/>
<path style=" stroke:none;fill-rule:nonzero;fill:rgb(67.843139%,81.176472%,99.607843%);fill-opacity:1;" d="M 7 0 C 7.285156 0.136719 7.429688 0.277344 7.5625 0.5625 C 7.585938 0.765625 7.585938 0.964844 7.582031 1.167969 C 7.582031 1.226562 7.582031 1.28125 7.578125 1.34375 C 7.578125 1.527344 7.578125 1.710938 7.574219 1.894531 C 7.574219 2.019531 7.574219 2.144531 7.570312 2.269531 C 7.570312 2.574219 7.566406 2.882812 7.5625 3.1875 C 8.179688 3.1875 8.800781 3.1875 9.4375 3.1875 C 9.433594 3.003906 9.433594 2.816406 9.429688 2.625 C 9.425781 2.445312 9.425781 2.265625 9.421875 2.085938 C 9.421875 1.960938 9.421875 1.835938 9.417969 1.710938 C 9.414062 1.53125 9.414062 1.351562 9.414062 1.171875 C 9.410156 1.117188 9.410156 1.0625 9.410156 1.003906 C 9.410156 0.660156 9.457031 0.460938 9.6875 0.1875 C 10.015625 -0.0664062 10.351562 -0.046875 10.75 0 C 11.035156 0.136719 11.179688 0.277344 11.3125 0.5625 C 11.335938 0.765625 11.335938 0.964844 11.332031 1.167969 C 11.332031 1.226562 11.332031 1.28125 11.328125 1.34375 C 11.328125 1.527344 11.328125 1.710938 11.324219 1.894531 C 11.324219 2.019531 11.324219 2.144531 11.320312 2.269531 C 11.320312 2.574219 11.316406 2.882812 11.3125 3.1875 C 11.929688 3.1875 12.550781 3.1875 13.1875 3.1875 C 13.183594 3.003906 13.183594 2.816406 13.179688 2.625 C 13.175781 2.445312 13.175781 2.265625 13.171875 2.085938 C 13.171875 1.960938 13.171875 1.835938 13.167969 1.710938 C 13.164062 1.53125 13.164062 1.351562 13.164062 1.171875 C 13.160156 1.117188 13.160156 1.0625 13.160156 1.003906 C 13.160156 0.660156 13.207031 0.460938 13.4375 0.1875 C 13.765625 -0.0664062 14.101562 -0.046875 14.5 0 C 14.785156 0.136719 14.929688 0.277344 15.0625 0.5625 C 15.085938 0.765625 15.085938 0.964844 15.082031 1.167969 C 15.082031 1.226562 15.082031 1.28125 15.078125 1.34375 C 15.078125 1.527344 15.078125 1.710938 15.074219 1.894531 C 15.074219 2.019531 15.074219 2.144531 15.070312 2.269531 C 15.070312 2.574219 15.066406 2.882812 15.0625 3.1875 C 15.371094 3.1875 15.679688 3.1875 16 3.1875 C 16 4.425781 16 5.664062 16 6.9375 C 15.402344 6.9375 14.800781 6.941406 14.183594 6.941406 C 13.804688 6.945312 13.425781 6.945312 13.042969 6.949219 C 12.441406 6.949219 11.839844 6.953125 11.234375 6.953125 C 10.796875 6.957031 10.359375 6.957031 9.917969 6.960938 C 9.6875 6.960938 9.453125 6.960938 9.222656 6.960938 C 8.960938 6.960938 8.703125 6.964844 8.445312 6.964844 C 8.367188 6.964844 8.289062 6.964844 8.210938 6.964844 C 7.796875 6.96875 7.511719 6.984375 7.1875 7.25 C 6.960938 7.589844 6.972656 7.90625 6.976562 8.300781 C 6.976562 8.367188 6.976562 8.4375 6.976562 8.507812 C 6.972656 8.734375 6.976562 8.964844 6.976562 9.191406 C 6.976562 9.355469 6.976562 9.519531 6.976562 9.683594 C 6.972656 10.082031 6.972656 10.480469 6.976562 10.878906 C 6.976562 11.203125 6.976562 11.527344 6.976562 11.851562 C 6.976562 11.921875 6.976562 11.921875 6.976562 11.992188 C 6.976562 12.085938 6.976562 12.179688 6.976562 12.273438 C 6.972656 13.152344 6.976562 14.03125 6.976562 14.910156 C 6.976562 15.664062 6.976562 16.417969 6.976562 17.171875 C 6.972656 18.046875 6.972656 18.921875 6.976562 19.796875 C 6.976562 19.890625 6.976562 19.984375 6.976562 20.078125 C 6.976562 20.125 6.976562 20.167969 6.976562 20.214844 C 6.976562 20.539062 6.976562 20.863281 6.972656 21.1875 C 6.972656 21.621094 6.972656 22.058594 6.976562 22.496094 C 6.976562 22.652344 6.976562 22.8125 6.976562 22.972656 C 6.976562 23.191406 6.976562 23.410156 6.976562 23.628906 C 6.976562 23.691406 6.976562 23.753906 6.976562 23.820312 C 6.976562 24.179688 7.011719 24.433594 7.1875 24.75 C 7.566406 25.066406 7.964844 25.035156 8.445312 25.035156 C 8.523438 25.035156 8.605469 25.035156 8.691406 25.035156 C 8.914062 25.039062 9.136719 25.039062 9.359375 25.039062 C 9.59375 25.039062 9.828125 25.039062 10.0625 25.042969 C 10.503906 25.042969 10.945312 25.046875 11.386719 25.046875 C 11.984375 25.046875 12.582031 25.050781 13.179688 25.054688 C 14.117188 25.058594 15.058594 25.058594 16 25.0625 C 16 26.300781 16 27.539062 16 28.8125 C 15.691406 28.8125 15.382812 28.8125 15.0625 28.8125 C 15.0625 28.890625 15.066406 28.96875 15.066406 29.046875 C 15.070312 29.335938 15.074219 29.625 15.078125 29.914062 C 15.078125 30.039062 15.078125 30.164062 15.082031 30.289062 C 15.085938 30.46875 15.085938 30.648438 15.085938 30.828125 C 15.089844 30.882812 15.089844 30.9375 15.089844 30.996094 C 15.089844 31.339844 15.042969 31.539062 14.8125 31.8125 C 14.484375 32.066406 14.148438 32.046875 13.75 32 C 13.464844 31.863281 13.320312 31.722656 13.1875 31.4375 C 13.164062 31.234375 13.164062 31.035156 13.167969 30.832031 C 13.167969 30.773438 13.167969 30.71875 13.171875 30.65625 C 13.171875 30.472656 13.171875 30.289062 13.175781 30.105469 C 13.175781 29.980469 13.175781 29.855469 13.179688 29.730469 C 13.179688 29.425781 13.183594 29.117188 13.1875 28.8125 C 12.570312 28.8125 11.949219 28.8125 11.3125 28.8125 C 11.316406 28.996094 11.316406 29.183594 11.320312 29.375 C 11.324219 29.554688 11.324219 29.734375 11.328125 29.914062 C 11.328125 30.039062 11.328125 30.164062 11.332031 30.289062 C 11.335938 30.46875 11.335938 30.648438 11.335938 30.828125 C 11.339844 30.882812 11.339844 30.9375 11.339844 30.996094 C 11.339844 31.339844 11.292969 31.539062 11.0625 31.8125 C 10.734375 32.066406 10.398438 32.046875 10 32 C 9.714844 31.863281 9.570312 31.722656 9.4375 31.4375 C 9.414062 31.234375 9.414062 31.035156 9.417969 30.832031 C 9.417969 30.773438 9.417969 30.71875 9.421875 30.65625 C 9.421875 30.472656 9.421875 30.289062 9.425781 30.105469 C 9.425781 29.980469 9.425781 29.855469 9.429688 29.730469 C 9.429688 29.425781 9.433594 29.117188 9.4375 28.8125 C 8.820312 28.8125 8.199219 28.8125 7.5625 28.8125 C 7.566406 28.996094 7.566406 29.183594 7.570312 29.375 C 7.574219 29.554688 7.574219 29.734375 7.578125 29.914062 C 7.578125 30.039062 7.578125 30.164062 7.582031 30.289062 C 7.585938 30.46875 7.585938 30.648438 7.585938 30.828125 C 7.589844 30.882812 7.589844 30.9375 7.589844 30.996094 C 7.589844 31.339844 7.542969 31.539062 7.3125 31.8125 C 6.984375 32.066406 6.648438 32.046875 6.25 32 C 5.964844 31.863281 5.820312 31.722656 5.6875 31.4375 C 5.664062 31.234375 5.664062 31.035156 5.667969 30.832031 C 5.667969 30.773438 5.667969 30.71875 5.671875 30.65625 C 5.671875 30.472656 5.671875 30.289062 5.675781 30.105469 C 5.675781 29.980469 5.675781 29.855469 5.679688 29.730469 C 5.679688 29.425781 5.683594 29.117188 5.6875 28.8125 C 5.628906 28.8125 5.574219 28.816406 5.515625 28.816406 C 5.304688 28.820312 5.09375 28.824219 4.878906 28.828125 C 4.789062 28.828125 4.699219 28.828125 4.605469 28.832031 C 4.472656 28.835938 4.34375 28.835938 4.210938 28.835938 C 4.132812 28.839844 4.050781 28.839844 3.96875 28.839844 C 3.648438 28.800781 3.460938 28.671875 3.257812 28.417969 C 3.167969 28.203125 3.167969 28.03125 3.167969 27.796875 C 3.167969 27.753906 3.167969 27.710938 3.171875 27.667969 C 3.171875 27.53125 3.171875 27.398438 3.175781 27.261719 C 3.175781 27.167969 3.175781 27.078125 3.179688 26.984375 C 3.179688 26.761719 3.183594 26.535156 3.1875 26.3125 C 3.109375 26.3125 3.03125 26.316406 2.953125 26.316406 C 2.664062 26.320312 2.375 26.324219 2.085938 26.328125 C 1.960938 26.328125 1.835938 26.328125 1.710938 26.332031 C 1.53125 26.335938 1.351562 26.335938 1.171875 26.335938 C 1.089844 26.339844 1.089844 26.339844 1.003906 26.339844 C 0.660156 26.339844 0.460938 26.292969 0.1875 26.0625 C -0.0664062 25.734375 -0.046875 25.398438 0 25 C 0.136719 24.714844 0.277344 24.570312 0.5625 24.4375 C 0.765625 24.414062 0.964844 24.414062 1.167969 24.417969 C 1.226562 24.417969 1.28125 24.417969 1.34375 24.421875 C 1.527344 24.421875 1.710938 24.421875 1.894531 24.425781 C 2.019531 24.425781 2.144531 24.425781 2.269531 24.429688 C 2.574219 24.429688 2.882812 24.433594 3.1875 24.4375 C 3.1875 23.820312 3.1875 23.199219 3.1875 22.5625 C 3.003906 22.566406 2.816406 22.566406 2.625 22.570312 C 2.445312 22.574219 2.265625 22.574219 2.085938 22.578125 C 1.960938 22.578125 1.835938 22.578125 1.710938 22.582031 C 1.53125 22.585938 1.351562 22.585938 1.171875 22.585938 C 1.089844 22.589844 1.089844 22.589844 1.003906 22.589844 C 0.660156 22.589844 0.460938 22.542969 0.1875 22.3125 C -0.0664062 21.984375 -0.046875 21.648438 0 21.25 C 0.136719 20.964844 0.277344 20.820312 0.5625 20.6875 C 0.765625 20.664062 0.964844 20.664062 1.167969 20.667969 C 1.226562 20.667969 1.28125 20.667969 1.34375 20.671875 C 1.527344 20.671875 1.710938 20.671875 1.894531 20.675781 C 2.019531 20.675781 2.144531 20.675781 2.269531 20.679688 C 2.574219 20.679688 2.882812 20.683594 3.1875 20.6875 C 3.1875 20.070312 3.1875 19.449219 3.1875 18.8125 C 3.003906 18.816406 2.816406 18.816406 2.625 18.820312 C 2.445312 18.824219 2.265625 18.824219 2.085938 18.828125 C 1.960938 18.828125 1.835938 18.828125 1.710938 18.832031 C 1.53125 18.835938 1.351562 18.835938 1.171875 18.835938 C 1.089844 18.839844 1.089844 18.839844 1.003906 18.839844 C 0.660156 18.839844 0.460938 18.792969 0.1875 18.5625 C -0.0664062 18.234375 -0.046875 17.898438 0 17.5 C 0.136719 17.214844 0.277344 17.070312 0.5625 16.9375 C 0.765625 16.914062 0.964844 16.914062 1.167969 16.917969 C 1.226562 16.917969 1.28125 16.917969 1.34375 16.921875 C 1.527344 16.921875 1.710938 16.921875 1.894531 16.925781 C 2.019531 16.925781 2.144531 16.925781 2.269531 16.929688 C 2.574219 16.929688 2.882812 16.933594 3.1875 16.9375 C 3.1875 16.320312 3.1875 15.699219 3.1875 15.0625 C 3.003906 15.066406 2.816406 15.066406 2.625 15.070312 C 2.445312 15.074219 2.265625 15.074219 2.085938 15.078125 C 1.960938 15.078125 1.835938 15.078125 1.710938 15.082031 C 1.53125 15.085938 1.351562 15.085938 1.171875 15.085938 C 1.089844 15.089844 1.089844 15.089844 1.003906 15.089844 C 0.660156 15.089844 0.460938 15.042969 0.1875 14.8125 C -0.0664062 14.484375 -0.046875 14.148438 0 13.75 C 0.136719 13.464844 0.277344 13.320312 0.5625 13.1875 C 0.765625 13.164062 0.964844 13.164062 1.167969 13.167969 C 1.226562 13.167969 1.28125 13.167969 1.34375 13.171875 C 1.527344 13.171875 1.710938 13.171875 1.894531 13.175781 C 2.019531 13.175781 2.144531 13.175781 2.269531 13.179688 C 2.574219 13.179688 2.882812 13.183594 3.1875 13.1875 C 3.1875 12.570312 3.1875 11.949219 3.1875 11.3125 C 3.003906 11.316406 2.816406 11.316406 2.625 11.320312 C 2.445312 11.324219 2.265625 11.324219 2.085938 11.328125 C 1.960938 11.328125 1.835938 11.328125 1.710938 11.332031 C 1.53125 11.335938 1.351562 11.335938 1.171875 11.335938 C 1.089844 11.339844 1.089844 11.339844 1.003906 11.339844 C 0.660156 11.339844 0.460938 11.292969 0.1875 11.0625 C -0.0664062 10.734375 -0.046875 10.398438 0 10 C 0.136719 9.714844 0.277344 9.570312 0.5625 9.4375 C 0.765625 9.414062 0.964844 9.414062 1.167969 9.417969 C 1.226562 9.417969 1.28125 9.417969 1.34375 9.421875 C 1.527344 9.421875 1.710938 9.421875 1.894531 9.425781 C 2.019531 9.425781 2.144531 9.425781 2.269531 9.429688 C 2.574219 9.429688 2.882812 9.433594 3.1875 9.4375 C 3.1875 8.820312 3.1875 8.199219 3.1875 7.5625 C 3.003906 7.566406 2.816406 7.566406 2.625 7.570312 C 2.445312 7.574219 2.265625 7.574219 2.085938 7.578125 C 1.960938 7.578125 1.835938 7.578125 1.710938 7.582031 C 1.53125 7.585938 1.351562 7.585938 1.171875 7.585938 C 1.089844 7.589844 1.089844 7.589844 1.003906 7.589844 C 0.660156 7.589844 0.460938 7.542969 0.1875 7.3125 C -0.0664062 6.984375 -0.046875 6.648438 0 6.25 C 0.136719 5.964844 0.277344 5.820312 0.5625 5.6875 C 0.765625 5.664062 0.964844 5.664062 1.167969 5.667969 C 1.226562 5.667969 1.28125 5.667969 1.34375 5.671875 C 1.527344 5.671875 1.710938 5.671875 1.894531 5.675781 C 2.019531 5.675781 2.144531 5.675781 2.269531 5.679688 C 2.574219 5.679688 2.882812 5.683594 3.1875 5.6875 C 3.1875 5.628906 3.183594 5.574219 3.183594 5.515625 C 3.179688 5.304688 3.175781 5.09375 3.171875 4.878906 C 3.171875 4.789062 3.171875 4.699219 3.167969 4.605469 C 3.164062 4.472656 3.164062 4.34375 3.164062 4.210938 C 3.160156 4.132812 3.160156 4.050781 3.160156 3.96875 C 3.199219 3.648438 3.328125 3.460938 3.582031 3.257812 C 3.796875 3.167969 3.96875 3.167969 4.203125 3.167969 C 4.269531 3.167969 4.269531 3.167969 4.332031 3.171875 C 4.46875 3.171875 4.601562 3.171875 4.738281 3.175781 C 4.832031 3.175781 4.921875 3.175781 5.015625 3.179688 C 5.238281 3.179688 5.464844 3.183594 5.6875 3.1875 C 5.683594 3.070312 5.683594 3.070312 5.683594 2.953125 C 5.679688 2.664062 5.675781 2.375 5.671875 2.085938 C 5.671875 1.960938 5.671875 1.835938 5.667969 1.710938 C 5.664062 1.53125 5.664062 1.351562 5.664062 1.171875 C 5.660156 1.117188 5.660156 1.0625 5.660156 1.003906 C 5.660156 0.660156 5.707031 0.460938 5.9375 0.1875 C 6.265625 -0.0664062 6.601562 -0.046875 7 0 Z M 7 0 "/>
<path style=" stroke:none;fill-rule:nonzero;fill:rgb(37.254903%,33.333334%,68.627453%);fill-opacity:1;" d="M 8.445312 6.910156 C 8.523438 6.910156 8.605469 6.910156 8.691406 6.910156 C 8.914062 6.910156 9.136719 6.910156 9.359375 6.914062 C 9.59375 6.914062 9.828125 6.914062 10.0625 6.914062 C 10.503906 6.914062 10.945312 6.917969 11.386719 6.917969 C 11.890625 6.921875 12.394531 6.921875 12.894531 6.925781 C 13.929688 6.925781 14.964844 6.933594 16 6.9375 C 15.996094 7.011719 15.996094 7.085938 15.992188 7.160156 C 15.796875 12.015625 15.796875 12.015625 17.203125 16.582031 C 17.464844 17.105469 17.664062 17.652344 17.863281 18.203125 C 17.921875 18.359375 17.984375 18.515625 18.046875 18.671875 C 18.40625 19.59375 18.40625 19.59375 18.3125 20.0625 C 18.167969 20.363281 17.988281 20.542969 17.6875 20.6875 C 17.386719 20.742188 17.097656 20.738281 16.828125 20.585938 C 16.507812 20.320312 16.390625 19.878906 16.25 19.5 C 16.1875 19.335938 16.125 19.171875 16.0625 19 C 16.03125 22 16.03125 22 16 25.0625 C 13.917969 25.074219 13.917969 25.074219 13.046875 25.078125 C 12.445312 25.078125 11.84375 25.082031 11.242188 25.085938 C 10.800781 25.089844 10.363281 25.089844 9.925781 25.09375 C 9.691406 25.09375 9.460938 25.09375 9.230469 25.09375 C 8.96875 25.097656 8.710938 25.097656 8.449219 25.097656 C 8.375 25.097656 8.296875 25.101562 8.21875 25.101562 C 7.835938 25.097656 7.550781 25.070312 7.222656 24.859375 C 6.898438 24.5 6.910156 24.089844 6.914062 23.628906 C 6.914062 23.5625 6.914062 23.492188 6.914062 23.421875 C 6.910156 23.195312 6.910156 22.964844 6.914062 22.738281 C 6.910156 22.574219 6.910156 22.410156 6.910156 22.246094 C 6.910156 21.847656 6.910156 21.449219 6.910156 21.050781 C 6.910156 20.726562 6.910156 20.402344 6.910156 20.078125 C 6.910156 20.035156 6.910156 19.988281 6.910156 19.941406 C 6.910156 19.847656 6.910156 19.753906 6.910156 19.660156 C 6.910156 18.78125 6.910156 17.902344 6.910156 17.023438 C 6.910156 16.21875 6.910156 15.417969 6.90625 14.613281 C 6.90625 13.789062 6.90625 12.964844 6.90625 12.136719 C 6.90625 11.675781 6.90625 11.210938 6.90625 10.75 C 6.90625 10.3125 6.90625 9.878906 6.90625 9.441406 C 6.90625 9.28125 6.90625 9.121094 6.90625 8.960938 C 6.90625 8.746094 6.90625 8.527344 6.90625 8.308594 C 6.90625 8.246094 6.90625 8.179688 6.90625 8.117188 C 6.910156 7.730469 6.960938 7.5 7.1875 7.1875 C 7.570312 6.871094 7.960938 6.902344 8.445312 6.910156 Z M 8.445312 6.910156 "/>
<path style=" stroke:none;fill-rule:nonzero;fill:rgb(22.352941%,19.607843%,42.352942%);fill-opacity:1;" d="M 16 6.9375 C 17.085938 6.933594 18.167969 6.925781 19.253906 6.925781 C 19.757812 6.921875 20.261719 6.921875 20.765625 6.917969 C 21.203125 6.917969 21.640625 6.914062 22.082031 6.914062 C 22.3125 6.914062 22.546875 6.914062 22.777344 6.910156 C 23.039062 6.910156 23.296875 6.910156 23.554688 6.910156 C 23.632812 6.910156 23.710938 6.90625 23.789062 6.90625 C 24.203125 6.910156 24.484375 6.917969 24.8125 7.1875 C 25.082031 7.558594 25.097656 7.855469 25.09375 8.308594 C 25.09375 8.410156 25.09375 8.410156 25.09375 8.515625 C 25.097656 8.742188 25.09375 8.972656 25.09375 9.199219 C 25.09375 9.363281 25.09375 9.527344 25.09375 9.691406 C 25.097656 10.089844 25.09375 10.488281 25.09375 10.886719 C 25.09375 11.351562 25.09375 11.816406 25.09375 12.277344 C 25.09375 13.105469 25.09375 13.933594 25.089844 14.761719 C 25.089844 15.566406 25.089844 16.371094 25.089844 17.175781 C 25.089844 18.050781 25.089844 18.925781 25.089844 19.800781 C 25.089844 19.894531 25.089844 19.988281 25.089844 20.078125 C 25.089844 20.125 25.089844 20.171875 25.089844 20.21875 C 25.089844 20.542969 25.089844 20.867188 25.089844 21.1875 C 25.089844 21.625 25.089844 22.058594 25.089844 22.496094 C 25.089844 22.65625 25.089844 22.816406 25.089844 22.976562 C 25.089844 23.191406 25.085938 23.410156 25.085938 23.628906 C 25.085938 23.722656 25.085938 23.722656 25.085938 23.820312 C 25.085938 24.179688 25.046875 24.433594 24.875 24.75 C 24.605469 25.007812 24.402344 25.070312 24.035156 25.070312 C 23.964844 25.070312 23.894531 25.070312 23.820312 25.070312 C 23.703125 25.070312 23.703125 25.070312 23.585938 25.070312 C 23.460938 25.070312 23.460938 25.070312 23.335938 25.070312 C 23.113281 25.070312 22.890625 25.070312 22.664062 25.070312 C 22.429688 25.070312 22.195312 25.070312 21.960938 25.066406 C 21.519531 25.066406 21.074219 25.066406 20.632812 25.066406 C 20.03125 25.066406 19.433594 25.066406 18.832031 25.066406 C 17.890625 25.066406 16.945312 25.0625 16 25.0625 C 16 23.019531 16 20.980469 16 18.875 C 16.136719 19.011719 16.171875 19.097656 16.234375 19.273438 C 16.257812 19.328125 16.277344 19.382812 16.296875 19.441406 C 16.339844 19.554688 16.382812 19.667969 16.425781 19.785156 C 16.566406 20.152344 16.695312 20.441406 17.0625 20.625 C 17.375 20.660156 17.617188 20.660156 17.902344 20.519531 C 18.105469 20.335938 18.234375 20.210938 18.261719 19.925781 C 18.269531 19.542969 18.210938 19.242188 18.070312 18.886719 C 18.050781 18.835938 18.03125 18.785156 18.011719 18.730469 C 17.945312 18.566406 17.882812 18.398438 17.816406 18.230469 C 17.773438 18.113281 17.726562 17.996094 17.683594 17.878906 C 17.585938 17.628906 17.492188 17.382812 17.398438 17.132812 C 17.246094 16.746094 17.101562 16.355469 16.953125 15.964844 C 16.929688 15.902344 16.90625 15.835938 16.878906 15.773438 C 16.832031 15.644531 16.785156 15.519531 16.738281 15.390625 C 16.605469 15.046875 16.476562 14.699219 16.34375 14.355469 C 16.328125 14.304688 16.308594 14.257812 16.289062 14.210938 C 16.273438 14.167969 16.257812 14.128906 16.242188 14.085938 C 16.226562 14.039062 16.207031 13.988281 16.1875 13.9375 C 16.136719 13.824219 16.136719 13.824219 16.089844 13.710938 C 15.972656 13.402344 15.976562 13.109375 15.980469 12.785156 C 15.980469 12.71875 15.980469 12.65625 15.980469 12.589844 C 15.980469 12.382812 15.980469 12.175781 15.980469 11.96875 C 15.980469 11.820312 15.980469 11.675781 15.984375 11.53125 C 15.984375 11.152344 15.984375 10.769531 15.988281 10.390625 C 15.988281 10 15.988281 9.613281 15.992188 9.222656 C 15.992188 8.460938 15.996094 7.699219 16 6.9375 Z M 16 6.9375 "/>
<path style=" stroke:none;fill-rule:nonzero;fill:rgb(96.862745%,96.862745%,97.254902%);fill-opacity:1;" d="M 14.890625 11.367188 C 15.503906 11.707031 15.683594 12.402344 15.90625 13.023438 C 15.988281 13.242188 16.066406 13.457031 16.148438 13.671875 C 16.191406 13.792969 16.234375 13.914062 16.28125 14.03125 C 16.46875 14.539062 16.660156 15.046875 16.851562 15.554688 C 16.867188 15.59375 16.882812 15.632812 16.898438 15.675781 C 17.003906 15.957031 17.113281 16.238281 17.21875 16.519531 C 17.386719 16.964844 17.558594 17.410156 17.726562 17.855469 C 17.820312 18.105469 17.914062 18.351562 18.011719 18.601562 C 18.035156 18.652344 18.054688 18.707031 18.074219 18.761719 C 18.113281 18.859375 18.152344 18.953125 18.191406 19.046875 C 18.320312 19.382812 18.355469 19.703125 18.3125 20.0625 C 18.167969 20.363281 17.988281 20.542969 17.6875 20.6875 C 17.386719 20.742188 17.097656 20.738281 16.828125 20.585938 C 16.367188 20.203125 16.222656 19.410156 16.0625 18.875 C 14.988281 18.894531 13.917969 18.917969 12.8125 18.9375 C 12.625 19.390625 12.441406 19.84375 12.25 20.3125 C 11.773438 20.710938 11.773438 20.710938 11.332031 20.703125 C 11.03125 20.667969 10.863281 20.492188 10.664062 20.277344 C 10.476562 19.878906 10.507812 19.515625 10.644531 19.101562 C 10.769531 18.761719 10.902344 18.425781 11.039062 18.089844 C 11.089844 17.960938 11.140625 17.835938 11.1875 17.707031 C 11.269531 17.503906 11.347656 17.300781 11.429688 17.097656 C 11.640625 16.554688 11.851562 16.015625 12.054688 15.472656 C 12.070312 15.429688 12.085938 15.390625 12.101562 15.347656 C 12.195312 15.105469 12.285156 14.863281 12.375 14.621094 C 12.582031 14.074219 12.789062 13.53125 12.996094 12.988281 C 13.039062 12.878906 13.078125 12.765625 13.121094 12.652344 C 13.171875 12.523438 13.222656 12.390625 13.273438 12.257812 C 13.300781 12.191406 13.328125 12.121094 13.355469 12.050781 C 13.648438 11.433594 14.226562 11.113281 14.890625 11.367188 Z M 14.890625 11.367188 "/>
<path style=" stroke:none;fill-rule:nonzero;fill:rgb(88.235295%,87.058824%,95.294118%);fill-opacity:1;" d="M 20.8125 11.3125 C 21.085938 11.453125 21.28125 11.609375 21.4375 11.875 C 21.476562 12.136719 21.472656 12.394531 21.46875 12.65625 C 21.46875 12.734375 21.472656 12.816406 21.472656 12.894531 C 21.472656 13.113281 21.472656 13.332031 21.472656 13.546875 C 21.46875 13.773438 21.472656 14.003906 21.472656 14.230469 C 21.472656 14.613281 21.472656 14.992188 21.46875 15.375 C 21.46875 15.816406 21.46875 16.257812 21.46875 16.699219 C 21.472656 17.078125 21.472656 17.457031 21.472656 17.835938 C 21.472656 18.0625 21.472656 18.289062 21.472656 18.515625 C 21.472656 18.769531 21.472656 19.019531 21.46875 19.273438 C 21.46875 19.347656 21.472656 19.421875 21.472656 19.5 C 21.46875 19.894531 21.457031 20.140625 21.1875 20.4375 C 20.929688 20.667969 20.722656 20.726562 20.386719 20.710938 C 20.097656 20.660156 19.933594 20.5 19.742188 20.289062 C 19.546875 19.984375 19.589844 19.625 19.589844 19.273438 C 19.589844 19.195312 19.589844 19.117188 19.589844 19.035156 C 19.585938 18.820312 19.585938 18.601562 19.585938 18.386719 C 19.585938 18.203125 19.585938 18.023438 19.585938 17.84375 C 19.585938 17.414062 19.585938 16.988281 19.585938 16.558594 C 19.585938 16.121094 19.585938 15.679688 19.582031 15.238281 C 19.578125 14.859375 19.578125 14.480469 19.578125 14.105469 C 19.578125 13.878906 19.578125 13.652344 19.578125 13.425781 C 19.574219 13.175781 19.578125 12.921875 19.578125 12.671875 C 19.578125 12.597656 19.578125 12.523438 19.574219 12.445312 C 19.582031 12.050781 19.613281 11.804688 19.894531 11.515625 C 20.1875 11.296875 20.453125 11.261719 20.8125 11.3125 Z M 20.8125 11.3125 "/>
<path style=" stroke:none;fill-rule:nonzero;fill:rgb(87.450981%,86.274511%,94.901961%);fill-opacity:1;" d="M 16 13.4375 C 16.109375 13.601562 16.171875 13.730469 16.238281 13.910156 C 16.261719 13.96875 16.28125 14.027344 16.304688 14.085938 C 16.328125 14.152344 16.351562 14.214844 16.378906 14.28125 C 16.402344 14.347656 16.429688 14.414062 16.453125 14.480469 C 16.535156 14.699219 16.617188 14.917969 16.699219 15.136719 C 16.785156 15.363281 16.867188 15.589844 16.953125 15.816406 C 17.011719 15.96875 17.066406 16.121094 17.125 16.273438 C 17.300781 16.746094 17.484375 17.21875 17.667969 17.691406 C 17.730469 17.859375 17.796875 18.027344 17.859375 18.195312 C 17.902344 18.300781 17.941406 18.40625 17.984375 18.511719 C 18.40625 19.585938 18.40625 19.585938 18.3125 20.0625 C 18.167969 20.363281 17.988281 20.542969 17.6875 20.6875 C 17.386719 20.742188 17.097656 20.738281 16.828125 20.585938 C 16.367188 20.203125 16.222656 19.410156 16.0625 18.875 C 14.988281 18.875 13.917969 18.875 12.8125 18.875 C 12.8125 18.855469 12.8125 18.832031 12.8125 18.8125 C 13.863281 18.8125 14.917969 18.8125 16 18.8125 C 16 17.039062 16 15.265625 16 13.4375 Z M 16 13.4375 "/>
<path style=" stroke:none;fill-rule:nonzero;fill:rgb(21.960784%,19.215687%,41.960785%);fill-opacity:1;" d="M 24.4375 28.8125 C 25.054688 28.8125 25.675781 28.8125 26.3125 28.8125 C 26.316406 29.179688 26.324219 29.546875 26.328125 29.914062 C 26.328125 30.039062 26.328125 30.164062 26.332031 30.289062 C 26.335938 30.46875 26.335938 30.648438 26.335938 30.828125 C 26.339844 30.882812 26.339844 30.9375 26.339844 30.996094 C 26.339844 31.339844 26.292969 31.539062 26.0625 31.8125 C 25.734375 32.066406 25.398438 32.046875 25 32 C 24.714844 31.863281 24.570312 31.722656 24.4375 31.4375 C 24.414062 31.234375 24.414062 31.035156 24.417969 30.832031 C 24.417969 30.773438 24.417969 30.71875 24.421875 30.65625 C 24.421875 30.472656 24.421875 30.289062 24.425781 30.105469 C 24.425781 29.980469 24.425781 29.855469 24.429688 29.730469 C 24.429688 29.425781 24.433594 29.117188 24.4375 28.8125 Z M 24.4375 28.8125 "/>
<path style=" stroke:none;fill-rule:nonzero;fill:rgb(21.960784%,19.215687%,41.960785%);fill-opacity:1;" d="M 20.6875 28.8125 C 21.304688 28.8125 21.925781 28.8125 22.5625 28.8125 C 22.566406 29.179688 22.574219 29.546875 22.578125 29.914062 C 22.578125 30.039062 22.578125 30.164062 22.582031 30.289062 C 22.585938 30.46875 22.585938 30.648438 22.585938 30.828125 C 22.589844 30.882812 22.589844 30.9375 22.589844 30.996094 C 22.589844 31.339844 22.542969 31.539062 22.3125 31.8125 C 21.984375 32.066406 21.648438 32.046875 21.25 32 C 20.964844 31.863281 20.820312 31.722656 20.6875 31.4375 C 20.664062 31.234375 20.664062 31.035156 20.667969 30.832031 C 20.667969 30.773438 20.667969 30.71875 20.671875 30.65625 C 20.671875 30.472656 20.671875 30.289062 20.675781 30.105469 C 20.675781 29.980469 20.675781 29.855469 20.679688 29.730469 C 20.679688 29.425781 20.683594 29.117188 20.6875 28.8125 Z M 20.6875 28.8125 "/>
<path style=" stroke:none;fill-rule:nonzero;fill:rgb(21.960784%,19.215687%,41.960785%);fill-opacity:1;" d="M 16.9375 28.8125 C 17.554688 28.8125 18.175781 28.8125 18.8125 28.8125 C 18.816406 29.179688 18.824219 29.546875 18.828125 29.914062 C 18.828125 30.039062 18.828125 30.164062 18.832031 30.289062 C 18.835938 30.46875 18.835938 30.648438 18.835938 30.828125 C 18.839844 30.882812 18.839844 30.9375 18.839844 30.996094 C 18.839844 31.339844 18.792969 31.539062 18.5625 31.8125 C 18.234375 32.066406 17.898438 32.046875 17.5 32 C 17.214844 31.863281 17.070312 31.722656 16.9375 31.4375 C 16.914062 31.234375 16.914062 31.035156 16.917969 30.832031 C 16.917969 30.773438 16.917969 30.71875 16.921875 30.65625 C 16.921875 30.472656 16.921875 30.289062 16.925781 30.105469 C 16.925781 29.980469 16.925781 29.855469 16.929688 29.730469 C 16.929688 29.425781 16.933594 29.117188 16.9375 28.8125 Z M 16.9375 28.8125 "/>
<path style=" stroke:none;fill-rule:nonzero;fill:rgb(37.254903%,33.333334%,68.235296%);fill-opacity:1;" d="M 13.1875 28.8125 C 13.804688 28.8125 14.425781 28.8125 15.0625 28.8125 C 15.066406 29.179688 15.074219 29.546875 15.078125 29.914062 C 15.078125 30.039062 15.078125 30.164062 15.082031 30.289062 C 15.085938 30.46875 15.085938 30.648438 15.085938 30.828125 C 15.089844 30.882812 15.089844 30.9375 15.089844 30.996094 C 15.089844 31.339844 15.042969 31.539062 14.8125 31.8125 C 14.484375 32.066406 14.148438 32.046875 13.75 32 C 13.464844 31.863281 13.320312 31.722656 13.1875 31.4375 C 13.164062 31.234375 13.164062 31.035156 13.167969 30.832031 C 13.167969 30.773438 13.167969 30.71875 13.171875 30.65625 C 13.171875 30.472656 13.171875 30.289062 13.175781 30.105469 C 13.175781 29.980469 13.175781 29.855469 13.179688 29.730469 C 13.179688 29.425781 13.183594 29.117188 13.1875 28.8125 Z M 13.1875 28.8125 "/>
<path style=" stroke:none;fill-rule:nonzero;fill:rgb(37.254903%,33.333334%,68.235296%);fill-opacity:1;" d="M 9.4375 28.8125 C 10.054688 28.8125 10.675781 28.8125 11.3125 28.8125 C 11.316406 29.179688 11.324219 29.546875 11.328125 29.914062 C 11.328125 30.039062 11.328125 30.164062 11.332031 30.289062 C 11.335938 30.46875 11.335938 30.648438 11.335938 30.828125 C 11.339844 30.882812 11.339844 30.9375 11.339844 30.996094 C 11.339844 31.339844 11.292969 31.539062 11.0625 31.8125 C 10.734375 32.066406 10.398438 32.046875 10 32 C 9.714844 31.863281 9.570312 31.722656 9.4375 31.4375 C 9.414062 31.234375 9.414062 31.035156 9.417969 30.832031 C 9.417969 30.773438 9.417969 30.71875 9.421875 30.65625 C 9.421875 30.472656 9.421875 30.289062 9.425781 30.105469 C 9.425781 29.980469 9.425781 29.855469 9.429688 29.730469 C 9.429688 29.425781 9.433594 29.117188 9.4375 28.8125 Z M 9.4375 28.8125 "/>
<path style=" stroke:none;fill-rule:nonzero;fill:rgb(37.254903%,33.333334%,68.235296%);fill-opacity:1;" d="M 5.6875 28.8125 C 6.304688 28.8125 6.925781 28.8125 7.5625 28.8125 C 7.566406 29.179688 7.574219 29.546875 7.578125 29.914062 C 7.578125 30.039062 7.578125 30.164062 7.582031 30.289062 C 7.585938 30.46875 7.585938 30.648438 7.585938 30.828125 C 7.589844 30.882812 7.589844 30.9375 7.589844 30.996094 C 7.589844 31.339844 7.542969 31.539062 7.3125 31.8125 C 6.984375 32.066406 6.648438 32.046875 6.25 32 C 5.964844 31.863281 5.820312 31.722656 5.6875 31.4375 C 5.664062 31.234375 5.664062 31.035156 5.667969 30.832031 C 5.667969 30.773438 5.667969 30.71875 5.671875 30.65625 C 5.671875 30.472656 5.671875 30.289062 5.675781 30.105469 C 5.675781 29.980469 5.675781 29.855469 5.679688 29.730469 C 5.679688 29.425781 5.683594 29.117188 5.6875 28.8125 Z M 5.6875 28.8125 "/>
<path style=" stroke:none;fill-rule:nonzero;fill:rgb(21.960784%,19.215687%,42.352942%);fill-opacity:1;" d="M 28.8125 24.4375 C 29.179688 24.433594 29.546875 24.425781 29.914062 24.421875 C 30.039062 24.421875 30.164062 24.421875 30.289062 24.417969 C 30.46875 24.414062 30.648438 24.414062 30.828125 24.414062 C 30.910156 24.410156 30.910156 24.410156 30.996094 24.410156 C 31.339844 24.410156 31.539062 24.457031 31.8125 24.6875 C 32.066406 25.015625 32.046875 25.351562 32 25.75 C 31.863281 26.035156 31.722656 26.179688 31.4375 26.3125 C 31.234375 26.335938 31.035156 26.335938 30.832031 26.332031 C 30.773438 26.332031 30.71875 26.332031 30.65625 26.328125 C 30.472656 26.328125 30.289062 26.328125 30.105469 26.324219 C 29.980469 26.324219 29.855469 26.324219 29.730469 26.320312 C 29.425781 26.320312 29.117188 26.316406 28.8125 26.3125 C 28.8125 25.695312 28.8125 25.074219 28.8125 24.4375 Z M 28.8125 24.4375 "/>
<path style=" stroke:none;fill-rule:nonzero;fill:rgb(36.862746%,32.941177%,68.235296%);fill-opacity:1;" d="M 1.167969 24.417969 C 1.226562 24.417969 1.28125 24.417969 1.34375 24.421875 C 1.527344 24.421875 1.710938 24.421875 1.894531 24.425781 C 2.019531 24.425781 2.144531 24.425781 2.269531 24.429688 C 2.574219 24.429688 2.882812 24.433594 3.1875 24.4375 C 3.1875 25.054688 3.1875 25.675781 3.1875 26.3125 C 2.820312 26.316406 2.453125 26.324219 2.085938 26.328125 C 1.960938 26.328125 1.835938 26.328125 1.710938 26.332031 C 1.53125 26.335938 1.351562 26.335938 1.171875 26.335938 C 1.089844 26.339844 1.089844 26.339844 1.003906 26.339844 C 0.660156 26.339844 0.460938 26.292969 0.1875 26.0625 C -0.0664062 25.734375 -0.046875 25.398438 0 25 C 0.257812 24.457031 0.621094 24.410156 1.167969 24.417969 Z M 1.167969 24.417969 "/>
<path style=" stroke:none;fill-rule:nonzero;fill:rgb(21.960784%,19.215687%,42.352942%);fill-opacity:1;" d="M 28.8125 20.6875 C 29.179688 20.683594 29.546875 20.675781 29.914062 20.671875 C 30.039062 20.671875 30.164062 20.671875 30.289062 20.667969 C 30.46875 20.664062 30.648438 20.664062 30.828125 20.664062 C 30.910156 20.660156 30.910156 20.660156 30.996094 20.660156 C 31.339844 20.660156 31.539062 20.707031 31.8125 20.9375 C 32.066406 21.265625 32.046875 21.601562 32 22 C 31.863281 22.285156 31.722656 22.429688 31.4375 22.5625 C 31.234375 22.585938 31.035156 22.585938 30.832031 22.582031 C 30.773438 22.582031 30.71875 22.582031 30.65625 22.578125 C 30.472656 22.578125 30.289062 22.578125 30.105469 22.574219 C 29.980469 22.574219 29.855469 22.574219 29.730469 22.570312 C 29.425781 22.570312 29.117188 22.566406 28.8125 22.5625 C 28.8125 21.945312 28.8125 21.324219 28.8125 20.6875 Z M 28.8125 20.6875 "/>
<path style=" stroke:none;fill-rule:nonzero;fill:rgb(36.862746%,32.941177%,68.235296%);fill-opacity:1;" d="M 1.167969 20.667969 C 1.226562 20.667969 1.28125 20.667969 1.34375 20.671875 C 1.527344 20.671875 1.710938 20.671875 1.894531 20.675781 C 2.019531 20.675781 2.144531 20.675781 2.269531 20.679688 C 2.574219 20.679688 2.882812 20.683594 3.1875 20.6875 C 3.1875 21.304688 3.1875 21.925781 3.1875 22.5625 C 2.820312 22.566406 2.453125 22.574219 2.085938 22.578125 C 1.960938 22.578125 1.835938 22.578125 1.710938 22.582031 C 1.53125 22.585938 1.351562 22.585938 1.171875 22.585938 C 1.089844 22.589844 1.089844 22.589844 1.003906 22.589844 C 0.660156 22.589844 0.460938 22.542969 0.1875 22.3125 C -0.0664062 21.984375 -0.046875 21.648438 0 21.25 C 0.257812 20.707031 0.621094 20.660156 1.167969 20.667969 Z M 1.167969 20.667969 "/>
<path style=" stroke:none;fill-rule:nonzero;fill:rgb(21.960784%,19.215687%,42.352942%);fill-opacity:1;" d="M 28.8125 16.9375 C 29.179688 16.933594 29.546875 16.925781 29.914062 16.921875 C 30.039062 16.921875 30.164062 16.921875 30.289062 16.917969 C 30.46875 16.914062 30.648438 16.914062 30.828125 16.914062 C 30.910156 16.910156 30.910156 16.910156 30.996094 16.910156 C 31.339844 16.910156 31.539062 16.957031 31.8125 17.1875 C 32.066406 17.515625 32.046875 17.851562 32 18.25 C 31.863281 18.535156 31.722656 18.679688 31.4375 18.8125 C 31.234375 18.835938 31.035156 18.835938 30.832031 18.832031 C 30.773438 18.832031 30.71875 18.832031 30.65625 18.828125 C 30.472656 18.828125 30.289062 18.828125 30.105469 18.824219 C 29.980469 18.824219 29.855469 18.824219 29.730469 18.820312 C 29.425781 18.820312 29.117188 18.816406 28.8125 18.8125 C 28.8125 18.195312 28.8125 17.574219 28.8125 16.9375 Z M 28.8125 16.9375 "/>
<path style=" stroke:none;fill-rule:nonzero;fill:rgb(36.862746%,32.941177%,68.235296%);fill-opacity:1;" d="M 1.167969 16.917969 C 1.226562 16.917969 1.28125 16.917969 1.34375 16.921875 C 1.527344 16.921875 1.710938 16.921875 1.894531 16.925781 C 2.019531 16.925781 2.144531 16.925781 2.269531 16.929688 C 2.574219 16.929688 2.882812 16.933594 3.1875 16.9375 C 3.1875 17.554688 3.1875 18.175781 3.1875 18.8125 C 2.820312 18.816406 2.453125 18.824219 2.085938 18.828125 C 1.960938 18.828125 1.835938 18.828125 1.710938 18.832031 C 1.53125 18.835938 1.351562 18.835938 1.171875 18.835938 C 1.089844 18.839844 1.089844 18.839844 1.003906 18.839844 C 0.660156 18.839844 0.460938 18.792969 0.1875 18.5625 C -0.0664062 18.234375 -0.046875 17.898438 0 17.5 C 0.257812 16.957031 0.621094 16.910156 1.167969 16.917969 Z M 1.167969 16.917969 "/>
<path style=" stroke:none;fill-rule:nonzero;fill:rgb(21.960784%,19.215687%,42.352942%);fill-opacity:1;" d="M 28.8125 13.1875 C 29.179688 13.183594 29.546875 13.175781 29.914062 13.171875 C 30.039062 13.171875 30.164062 13.171875 30.289062 13.167969 C 30.46875 13.164062 30.648438 13.164062 30.828125 13.164062 C 30.910156 13.160156 30.910156 13.160156 30.996094 13.160156 C 31.339844 13.160156 31.539062 13.207031 31.8125 13.4375 C 32.066406 13.765625 32.046875 14.101562 32 14.5 C 31.863281 14.785156 31.722656 14.929688 31.4375 15.0625 C 31.234375 15.085938 31.035156 15.085938 30.832031 15.082031 C 30.773438 15.082031 30.71875 15.082031 30.65625 15.078125 C 30.472656 15.078125 30.289062 15.078125 30.105469 15.074219 C 29.980469 15.074219 29.855469 15.074219 29.730469 15.070312 C 29.425781 15.070312 29.117188 15.066406 28.8125 15.0625 C 28.8125 14.445312 28.8125 13.824219 28.8125 13.1875 Z M 28.8125 13.1875 "/>
<path style=" stroke:none;fill-rule:nonzero;fill:rgb(36.862746%,32.941177%,68.235296%);fill-opacity:1;" d="M 1.167969 13.167969 C 1.226562 13.167969 1.28125 13.167969 1.34375 13.171875 C 1.527344 13.171875 1.710938 13.171875 1.894531 13.175781 C 2.019531 13.175781 2.144531 13.175781 2.269531 13.179688 C 2.574219 13.179688 2.882812 13.183594 3.1875 13.1875 C 3.1875 13.804688 3.1875 14.425781 3.1875 15.0625 C 2.820312 15.066406 2.453125 15.074219 2.085938 15.078125 C 1.960938 15.078125 1.835938 15.078125 1.710938 15.082031 C 1.53125 15.085938 1.351562 15.085938 1.171875 15.085938 C 1.089844 15.089844 1.089844 15.089844 1.003906 15.089844 C 0.660156 15.089844 0.460938 15.042969 0.1875 14.8125 C -0.0664062 14.484375 -0.046875 14.148438 0 13.75 C 0.257812 13.207031 0.621094 13.160156 1.167969 13.167969 Z M 1.167969 13.167969 "/>
<path style=" stroke:none;fill-rule:nonzero;fill:rgb(21.960784%,19.215687%,42.352942%);fill-opacity:1;" d="M 28.8125 9.4375 C 29.179688 9.433594 29.546875 9.425781 29.914062 9.421875 C 30.039062 9.421875 30.164062 9.421875 30.289062 9.417969 C 30.46875 9.414062 30.648438 9.414062 30.828125 9.414062 C 30.910156 9.410156 30.910156 9.410156 30.996094 9.410156 C 31.339844 9.410156 31.539062 9.457031 31.8125 9.6875 C 32.066406 10.015625 32.046875 10.351562 32 10.75 C 31.863281 11.035156 31.722656 11.179688 31.4375 11.3125 C 31.234375 11.335938 31.035156 11.335938 30.832031 11.332031 C 30.773438 11.332031 30.71875 11.332031 30.65625 11.328125 C 30.472656 11.328125 30.289062 11.328125 30.105469 11.324219 C 29.980469 11.324219 29.855469 11.324219 29.730469 11.320312 C 29.425781 11.320312 29.117188 11.316406 28.8125 11.3125 C 28.8125 10.695312 28.8125 10.074219 28.8125 9.4375 Z M 28.8125 9.4375 "/>
<path style=" stroke:none;fill-rule:nonzero;fill:rgb(36.862746%,32.941177%,68.235296%);fill-opacity:1;" d="M 1.167969 9.417969 C 1.226562 9.417969 1.28125 9.417969 1.34375 9.421875 C 1.527344 9.421875 1.710938 9.421875 1.894531 9.425781 C 2.019531 9.425781 2.144531 9.425781 2.269531 9.429688 C 2.574219 9.429688 2.882812 9.433594 3.1875 9.4375 C 3.1875 10.054688 3.1875 10.675781 3.1875 11.3125 C 2.820312 11.316406 2.453125 11.324219 2.085938 11.328125 C 1.960938 11.328125 1.835938 11.328125 1.710938 11.332031 C 1.53125 11.335938 1.351562 11.335938 1.171875 11.335938 C 1.089844 11.339844 1.089844 11.339844 1.003906 11.339844 C 0.660156 11.339844 0.460938 11.292969 0.1875 11.0625 C -0.0664062 10.734375 -0.046875 10.398438 0 10 C 0.257812 9.457031 0.621094 9.410156 1.167969 9.417969 Z M 1.167969 9.417969 "/>
<path style=" stroke:none;fill-rule:nonzero;fill:rgb(21.960784%,19.215687%,42.352942%);fill-opacity:1;" d="M 28.8125 5.6875 C 29.179688 5.683594 29.546875 5.675781 29.914062 5.671875 C 30.039062 5.671875 30.164062 5.671875 30.289062 5.667969 C 30.46875 5.664062 30.648438 5.664062 30.828125 5.664062 C 30.910156 5.660156 30.910156 5.660156 30.996094 5.660156 C 31.339844 5.660156 31.539062 5.707031 31.8125 5.9375 C 32.066406 6.265625 32.046875 6.601562 32 7 C 31.863281 7.285156 31.722656 7.429688 31.4375 7.5625 C 31.234375 7.585938 31.035156 7.585938 30.832031 7.582031 C 30.773438 7.582031 30.71875 7.582031 30.65625 7.578125 C 30.472656 7.578125 30.289062 7.578125 30.105469 7.574219 C 29.980469 7.574219 29.855469 7.574219 29.730469 7.570312 C 29.425781 7.570312 29.117188 7.566406 28.8125 7.5625 C 28.8125 6.945312 28.8125 6.324219 28.8125 5.6875 Z M 28.8125 5.6875 "/>
<path style=" stroke:none;fill-rule:nonzero;fill:rgb(36.862746%,32.941177%,68.235296%);fill-opacity:1;" d="M 1.167969 5.667969 C 1.226562 5.667969 1.28125 5.667969 1.34375 5.671875 C 1.527344 5.671875 1.710938 5.671875 1.894531 5.675781 C 2.019531 5.675781 2.144531 5.675781 2.269531 5.679688 C 2.574219 5.679688 2.882812 5.683594 3.1875 5.6875 C 3.1875 6.304688 3.1875 6.925781 3.1875 7.5625 C 2.820312 7.566406 2.453125 7.574219 2.085938 7.578125 C 1.960938 7.578125 1.835938 7.578125 1.710938 7.582031 C 1.53125 7.585938 1.351562 7.585938 1.171875 7.585938 C 1.089844 7.589844 1.089844 7.589844 1.003906 7.589844 C 0.660156 7.589844 0.460938 7.542969 0.1875 7.3125 C -0.0664062 6.984375 -0.046875 6.648438 0 6.25 C 0.257812 5.707031 0.621094 5.660156 1.167969 5.667969 Z M 1.167969 5.667969 "/>
<path style=" stroke:none;fill-rule:nonzero;fill:rgb(21.960784%,19.215687%,41.960785%);fill-opacity:1;" d="M 25.75 0 C 26.035156 0.136719 26.179688 0.277344 26.3125 0.5625 C 26.335938 0.765625 26.335938 0.964844 26.332031 1.167969 C 26.332031 1.226562 26.332031 1.28125 26.328125 1.34375 C 26.328125 1.527344 26.328125 1.710938 26.324219 1.894531 C 26.324219 2.019531 26.324219 2.144531 26.320312 2.269531 C 26.320312 2.574219 26.316406 2.882812 26.3125 3.1875 C 25.695312 3.1875 25.074219 3.1875 24.4375 3.1875 C 24.433594 2.820312 24.425781 2.453125 24.421875 2.085938 C 24.421875 1.960938 24.421875 1.835938 24.417969 1.710938 C 24.414062 1.53125 24.414062 1.351562 24.414062 1.171875 C 24.410156 1.117188 24.410156 1.0625 24.410156 1.003906 C 24.410156 0.660156 24.457031 0.460938 24.6875 0.1875 C 25.015625 -0.0664062 25.351562 -0.046875 25.75 0 Z M 25.75 0 "/>
<path style=" stroke:none;fill-rule:nonzero;fill:rgb(21.960784%,19.215687%,41.960785%);fill-opacity:1;" d="M 22 0 C 22.285156 0.136719 22.429688 0.277344 22.5625 0.5625 C 22.585938 0.765625 22.585938 0.964844 22.582031 1.167969 C 22.582031 1.226562 22.582031 1.28125 22.578125 1.34375 C 22.578125 1.527344 22.578125 1.710938 22.574219 1.894531 C 22.574219 2.019531 22.574219 2.144531 22.570312 2.269531 C 22.570312 2.574219 22.566406 2.882812 22.5625 3.1875 C 21.945312 3.1875 21.324219 3.1875 20.6875 3.1875 C 20.683594 2.820312 20.675781 2.453125 20.671875 2.085938 C 20.671875 1.960938 20.671875 1.835938 20.667969 1.710938 C 20.664062 1.53125 20.664062 1.351562 20.664062 1.171875 C 20.660156 1.117188 20.660156 1.0625 20.660156 1.003906 C 20.660156 0.660156 20.707031 0.460938 20.9375 0.1875 C 21.265625 -0.0664062 21.601562 -0.046875 22 0 Z M 22 0 "/>
<path style=" stroke:none;fill-rule:nonzero;fill:rgb(21.960784%,19.215687%,41.960785%);fill-opacity:1;" d="M 18.25 0 C 18.535156 0.136719 18.679688 0.277344 18.8125 0.5625 C 18.835938 0.765625 18.835938 0.964844 18.832031 1.167969 C 18.832031 1.226562 18.832031 1.28125 18.828125 1.34375 C 18.828125 1.527344 18.828125 1.710938 18.824219 1.894531 C 18.824219 2.019531 18.824219 2.144531 18.820312 2.269531 C 18.820312 2.574219 18.816406 2.882812 18.8125 3.1875 C 18.195312 3.1875 17.574219 3.1875 16.9375 3.1875 C 16.933594 2.820312 16.925781 2.453125 16.921875 2.085938 C 16.921875 1.960938 16.921875 1.835938 16.917969 1.710938 C 16.914062 1.53125 16.914062 1.351562 16.914062 1.171875 C 16.910156 1.117188 16.910156 1.0625 16.910156 1.003906 C 16.910156 0.660156 16.957031 0.460938 17.1875 0.1875 C 17.515625 -0.0664062 17.851562 -0.046875 18.25 0 Z M 18.25 0 "/>
<path style=" stroke:none;fill-rule:nonzero;fill:rgb(36.862746%,33.333334%,68.235296%);fill-opacity:1;" d="M 14.5 0 C 14.785156 0.136719 14.929688 0.277344 15.0625 0.5625 C 15.085938 0.765625 15.085938 0.964844 15.082031 1.167969 C 15.082031 1.226562 15.082031 1.28125 15.078125 1.34375 C 15.078125 1.527344 15.078125 1.710938 15.074219 1.894531 C 15.074219 2.019531 15.074219 2.144531 15.070312 2.269531 C 15.070312 2.574219 15.066406 2.882812 15.0625 3.1875 C 14.445312 3.1875 13.824219 3.1875 13.1875 3.1875 C 13.183594 2.820312 13.175781 2.453125 13.171875 2.085938 C 13.171875 1.960938 13.171875 1.835938 13.167969 1.710938 C 13.164062 1.53125 13.164062 1.351562 13.164062 1.171875 C 13.160156 1.117188 13.160156 1.0625 13.160156 1.003906 C 13.160156 0.660156 13.207031 0.460938 13.4375 0.1875 C 13.765625 -0.0664062 14.101562 -0.046875 14.5 0 Z M 14.5 0 "/>
<path style=" stroke:none;fill-rule:nonzero;fill:rgb(36.862746%,33.333334%,68.235296%);fill-opacity:1;" d="M 10.75 0 C 11.035156 0.136719 11.179688 0.277344 11.3125 0.5625 C 11.335938 0.765625 11.335938 0.964844 11.332031 1.167969 C 11.332031 1.226562 11.332031 1.28125 11.328125 1.34375 C 11.328125 1.527344 11.328125 1.710938 11.324219 1.894531 C 11.324219 2.019531 11.324219 2.144531 11.320312 2.269531 C 11.320312 2.574219 11.316406 2.882812 11.3125 3.1875 C 10.695312 3.1875 10.074219 3.1875 9.4375 3.1875 C 9.433594 2.820312 9.425781 2.453125 9.421875 2.085938 C 9.421875 1.960938 9.421875 1.835938 9.417969 1.710938 C 9.414062 1.53125 9.414062 1.351562 9.414062 1.171875 C 9.410156 1.117188 9.410156 1.0625 9.410156 1.003906 C 9.410156 0.660156 9.457031 0.460938 9.6875 0.1875 C 10.015625 -0.0664062 10.351562 -0.046875 10.75 0 Z M 10.75 0 "/>
<path style=" stroke:none;fill-rule:nonzero;fill:rgb(36.862746%,33.333334%,68.235296%);fill-opacity:1;" d="M 7 0 C 7.285156 0.136719 7.429688 0.277344 7.5625 0.5625 C 7.585938 0.765625 7.585938 0.964844 7.582031 1.167969 C 7.582031 1.226562 7.582031 1.28125 7.578125 1.34375 C 7.578125 1.527344 7.578125 1.710938 7.574219 1.894531 C 7.574219 2.019531 7.574219 2.144531 7.570312 2.269531 C 7.570312 2.574219 7.566406 2.882812 7.5625 3.1875 C 6.945312 3.1875 6.324219 3.1875 5.6875 3.1875 C 5.683594 2.820312 5.675781 2.453125 5.671875 2.085938 C 5.671875 1.960938 5.671875 1.835938 5.667969 1.710938 C 5.664062 1.53125 5.664062 1.351562 5.664062 1.171875 C 5.660156 1.117188 5.660156 1.0625 5.660156 1.003906 C 5.660156 0.660156 5.707031 0.460938 5.9375 0.1875 C 6.265625 -0.0664062 6.601562 -0.046875 7 0 Z M 7 0 "/>
<path style=" stroke:none;fill-rule:nonzero;fill:rgb(40.000001%,36.078432%,69.803923%);fill-opacity:1;" d="M 14.375 14.625 C 14.417969 14.625 14.457031 14.625 14.5 14.625 C 14.617188 14.933594 14.730469 15.242188 14.847656 15.550781 C 14.886719 15.652344 14.925781 15.757812 14.964844 15.863281 C 15.023438 16.015625 15.078125 16.164062 15.132812 16.316406 C 15.152344 16.363281 15.171875 16.410156 15.1875 16.457031 C 15.257812 16.648438 15.3125 16.796875 15.3125 17 C 14.734375 17 14.15625 17 13.5625 17 C 13.644531 16.632812 13.71875 16.328125 13.851562 15.984375 C 13.871094 15.925781 13.871094 15.925781 13.894531 15.867188 C 13.941406 15.742188 13.992188 15.621094 14.039062 15.496094 C 14.070312 15.410156 14.105469 15.328125 14.136719 15.242188 C 14.214844 15.035156 14.296875 14.832031 14.375 14.625 Z M 14.375 14.625 "/>
</g>
</svg>
