<?xml version="1.0" encoding="UTF-8"?>
<svg xmlns="http://www.w3.org/2000/svg" xmlns:xlink="http://www.w3.org/1999/xlink" width="32px" height="32px" viewBox="0 0 32 32" version="1.1">
<g id="surface1">
<path style=" stroke:none;fill-rule:nonzero;fill:rgb(17.647059%,48.627451%,58.039218%);fill-opacity:1;" d="M 6.6875 0.992188 C 6.757812 0.992188 6.824219 0.992188 6.894531 0.992188 C 7.121094 0.988281 7.351562 0.988281 7.578125 0.988281 C 7.742188 0.988281 7.902344 0.988281 8.066406 0.988281 C 8.511719 0.988281 8.953125 0.988281 9.398438 0.988281 C 9.675781 0.988281 9.953125 0.988281 10.230469 0.988281 C 11 0.984375 11.769531 0.984375 12.539062 0.984375 C 12.585938 0.984375 12.636719 0.984375 12.6875 0.984375 C 12.734375 0.984375 12.785156 0.984375 12.835938 0.984375 C 12.9375 0.984375 13.035156 0.984375 13.136719 0.984375 C 13.210938 0.984375 13.210938 0.984375 13.285156 0.984375 C 14.085938 0.984375 14.890625 0.984375 15.691406 0.980469 C 16.515625 0.980469 17.339844 0.980469 18.164062 0.980469 C 18.625 0.980469 19.089844 0.980469 19.550781 0.976562 C 19.945312 0.976562 20.339844 0.976562 20.734375 0.976562 C 20.933594 0.976562 21.132812 0.976562 21.335938 0.976562 C 23.269531 0.96875 24.90625 1.316406 26.335938 2.707031 C 27.382812 3.8125 27.855469 5.222656 27.84375 6.71875 C 27.84375 6.8125 27.84375 6.902344 27.847656 6.996094 C 27.847656 7.242188 27.847656 7.488281 27.847656 7.734375 C 27.84375 7.992188 27.847656 8.253906 27.847656 8.511719 C 27.847656 8.945312 27.847656 9.378906 27.84375 9.8125 C 27.84375 10.316406 27.84375 10.816406 27.84375 11.316406 C 27.847656 11.75 27.847656 12.183594 27.847656 12.613281 C 27.847656 12.871094 27.847656 13.128906 27.847656 13.386719 C 27.847656 13.628906 27.847656 13.867188 27.84375 14.109375 C 27.84375 14.199219 27.84375 14.289062 27.84375 14.375 C 27.847656 14.496094 27.84375 14.617188 27.84375 14.738281 C 27.84375 14.839844 27.84375 14.839844 27.84375 14.941406 C 27.804688 15.167969 27.71875 15.273438 27.5625 15.4375 C 27.285156 15.574219 27.011719 15.523438 26.730469 15.433594 C 26.609375 15.390625 26.492188 15.351562 26.375 15.308594 C 26.007812 15.179688 25.652344 15.136719 25.265625 15.109375 C 24.992188 15.046875 24.914062 14.980469 24.75 14.75 C 24.703125 14.492188 24.707031 14.238281 24.710938 13.976562 C 24.710938 13.855469 24.710938 13.855469 24.710938 13.738281 C 24.707031 13.566406 24.707031 13.394531 24.710938 13.222656 C 24.710938 12.953125 24.710938 12.683594 24.707031 12.410156 C 24.707031 11.980469 24.707031 11.550781 24.707031 11.125 C 24.707031 10.355469 24.707031 9.589844 24.703125 8.824219 C 24.703125 8.554688 24.703125 8.285156 24.703125 8.015625 C 24.703125 7.890625 24.703125 7.761719 24.703125 7.636719 C 24.703125 7.480469 24.703125 7.328125 24.703125 7.171875 C 24.699219 6.308594 24.59375 5.507812 23.988281 4.847656 C 23.394531 4.320312 22.703125 4.160156 21.925781 4.164062 C 21.859375 4.164062 21.792969 4.164062 21.722656 4.164062 C 21.5 4.160156 21.273438 4.164062 21.050781 4.164062 C 20.886719 4.164062 20.726562 4.164062 20.5625 4.164062 C 20.171875 4.160156 19.777344 4.160156 19.386719 4.164062 C 19.066406 4.164062 18.75 4.164062 18.429688 4.164062 C 18.359375 4.164062 18.359375 4.164062 18.292969 4.164062 C 18.199219 4.164062 18.105469 4.164062 18.011719 4.164062 C 17.148438 4.160156 16.28125 4.164062 15.414062 4.164062 C 14.671875 4.164062 13.929688 4.164062 13.1875 4.164062 C 12.324219 4.160156 11.460938 4.160156 10.597656 4.164062 C 10.503906 4.164062 10.414062 4.164062 10.320312 4.164062 C 10.277344 4.164062 10.230469 4.164062 10.183594 4.164062 C 9.863281 4.164062 9.546875 4.164062 9.226562 4.160156 C 8.796875 4.160156 8.371094 4.160156 7.941406 4.164062 C 7.78125 4.164062 7.625 4.164062 7.46875 4.164062 C 7.253906 4.164062 7.039062 4.164062 6.824219 4.164062 C 6.730469 4.164062 6.730469 4.164062 6.632812 4.164062 C 5.898438 4.167969 5.21875 4.398438 4.695312 4.933594 C 4.359375 5.355469 4.117188 5.867188 4.117188 6.414062 C 4.117188 6.472656 4.117188 6.53125 4.117188 6.589844 C 4.117188 6.65625 4.117188 6.71875 4.117188 6.785156 C 4.117188 6.851562 4.117188 6.917969 4.113281 6.988281 C 4.113281 7.21875 4.113281 7.445312 4.113281 7.675781 C 4.113281 7.835938 4.113281 8 4.113281 8.164062 C 4.113281 8.65625 4.109375 9.144531 4.109375 9.636719 C 4.109375 9.867188 4.109375 10.097656 4.109375 10.332031 C 4.109375 11.097656 4.105469 11.867188 4.105469 12.636719 C 4.105469 12.835938 4.105469 13.035156 4.105469 13.234375 C 4.105469 13.308594 4.105469 13.308594 4.105469 13.386719 C 4.105469 14.1875 4.105469 14.992188 4.101562 15.792969 C 4.101562 16.617188 4.097656 17.445312 4.097656 18.269531 C 4.097656 18.730469 4.097656 19.195312 4.097656 19.65625 C 4.09375 20.09375 4.09375 20.527344 4.09375 20.964844 C 4.09375 21.125 4.09375 21.28125 4.09375 21.441406 C 4.09375 21.660156 4.09375 21.878906 4.09375 22.097656 C 4.09375 22.160156 4.09375 22.222656 4.09375 22.289062 C 4.097656 23.007812 4.351562 23.59375 4.855469 24.105469 C 5.527344 24.71875 6.292969 24.769531 7.167969 24.765625 C 7.261719 24.765625 7.351562 24.765625 7.445312 24.765625 C 7.640625 24.765625 7.835938 24.765625 8.035156 24.765625 C 8.34375 24.765625 8.65625 24.765625 8.96875 24.765625 C 9.851562 24.769531 10.738281 24.769531 11.621094 24.769531 C 12.113281 24.769531 12.601562 24.769531 13.089844 24.769531 C 13.398438 24.773438 13.707031 24.773438 14.019531 24.769531 C 14.210938 24.769531 14.402344 24.773438 14.59375 24.773438 C 14.683594 24.773438 14.773438 24.773438 14.863281 24.773438 C 15.617188 24.765625 15.617188 24.765625 15.863281 24.960938 C 15.988281 25.109375 16.070312 25.226562 16.140625 25.40625 C 16.269531 25.6875 16.429688 25.921875 16.621094 26.167969 C 16.648438 26.203125 16.675781 26.238281 16.703125 26.273438 C 16.847656 26.457031 17 26.632812 17.164062 26.800781 C 17.304688 26.988281 17.339844 27.039062 17.351562 27.257812 C 17.308594 27.527344 17.261719 27.628906 17.0625 27.8125 C 16.8125 27.9375 16.601562 27.953125 16.324219 27.953125 C 16.28125 27.953125 16.238281 27.953125 16.195312 27.953125 C 16.054688 27.953125 15.914062 27.953125 15.773438 27.953125 C 15.671875 27.953125 15.570312 27.953125 15.46875 27.953125 C 15.195312 27.953125 14.917969 27.953125 14.644531 27.953125 C 14.355469 27.953125 14.066406 27.953125 13.777344 27.953125 C 13.292969 27.953125 12.808594 27.953125 12.320312 27.953125 C 11.761719 27.953125 11.203125 27.953125 10.644531 27.953125 C 10.164062 27.953125 9.683594 27.953125 9.203125 27.953125 C 8.914062 27.953125 8.628906 27.953125 8.339844 27.953125 C 8.070312 27.953125 7.800781 27.953125 7.53125 27.953125 C 7.433594 27.953125 7.332031 27.953125 7.234375 27.953125 C 5.578125 27.957031 4.003906 27.65625 2.75 26.5 C 2.675781 26.433594 2.675781 26.433594 2.601562 26.367188 C 1.671875 25.476562 0.984375 24.152344 0.929688 22.847656 C 0.929688 22.667969 0.929688 22.488281 0.929688 22.304688 C 0.929688 22.238281 0.929688 22.167969 0.929688 22.09375 C 0.925781 21.863281 0.925781 21.632812 0.925781 21.398438 C 0.925781 21.230469 0.925781 21.066406 0.925781 20.898438 C 0.925781 20.445312 0.925781 19.992188 0.925781 19.542969 C 0.925781 19.257812 0.925781 18.976562 0.925781 18.691406 C 0.921875 17.90625 0.921875 17.125 0.921875 16.339844 C 0.921875 16.289062 0.921875 16.238281 0.921875 16.1875 C 0.921875 16.136719 0.921875 16.085938 0.921875 16.035156 C 0.921875 15.933594 0.921875 15.832031 0.921875 15.730469 C 0.921875 15.679688 0.921875 15.628906 0.921875 15.574219 C 0.921875 14.757812 0.921875 13.941406 0.917969 13.121094 C 0.917969 12.28125 0.917969 11.4375 0.917969 10.597656 C 0.917969 10.125 0.917969 9.65625 0.914062 9.183594 C 0.914062 8.78125 0.914062 8.378906 0.914062 7.976562 C 0.914062 7.773438 0.914062 7.566406 0.914062 7.363281 C 0.90625 5.492188 1.257812 3.949219 2.597656 2.5625 C 3.695312 1.464844 5.15625 0.988281 6.6875 0.992188 Z M 6.6875 0.992188 "/>
<path style=" stroke:none;fill-rule:nonzero;fill:rgb(17.647059%,48.627451%,58.039218%);fill-opacity:1;" d="M 25.460938 18.101562 C 25.722656 18.203125 25.738281 18.238281 25.851562 18.484375 C 25.902344 18.617188 25.953125 18.75 26 18.882812 C 26.03125 18.953125 26.058594 19.023438 26.085938 19.097656 C 26.171875 19.324219 26.257812 19.550781 26.34375 19.777344 C 26.429688 20.003906 26.515625 20.226562 26.601562 20.453125 C 26.65625 20.59375 26.710938 20.730469 26.761719 20.871094 C 26.933594 21.316406 27.144531 21.6875 27.4375 22.0625 C 27.464844 22.097656 27.492188 22.136719 27.523438 22.175781 C 28.191406 23.011719 29.289062 23.316406 30.25 23.6875 C 30.472656 23.773438 30.695312 23.859375 30.917969 23.949219 C 31.058594 24.003906 31.195312 24.054688 31.332031 24.109375 C 31.394531 24.132812 31.453125 24.15625 31.519531 24.183594 C 31.570312 24.203125 31.625 24.222656 31.683594 24.246094 C 31.8125 24.3125 31.8125 24.3125 31.9375 24.5 C 31.9375 24.6875 31.9375 24.6875 31.875 24.875 C 31.714844 24.976562 31.714844 24.976562 31.503906 25.058594 C 31.464844 25.074219 31.425781 25.089844 31.386719 25.105469 C 31.300781 25.136719 31.21875 25.167969 31.132812 25.199219 C 31 25.25 30.867188 25.300781 30.734375 25.355469 C 30.550781 25.429688 30.363281 25.503906 30.179688 25.574219 C 30.132812 25.59375 30.085938 25.613281 30.039062 25.632812 C 29.941406 25.667969 29.847656 25.707031 29.75 25.742188 C 28.46875 26.242188 27.457031 26.800781 26.859375 28.105469 C 26.667969 28.558594 26.496094 29.019531 26.320312 29.480469 C 26.242188 29.6875 26.164062 29.894531 26.082031 30.097656 C 26.035156 30.226562 25.984375 30.355469 25.9375 30.480469 C 25.914062 30.539062 25.894531 30.597656 25.871094 30.65625 C 25.851562 30.703125 25.832031 30.753906 25.8125 30.808594 C 25.746094 30.945312 25.683594 31.027344 25.5625 31.125 C 25.40625 31.148438 25.40625 31.148438 25.25 31.125 C 25.078125 30.988281 25.011719 30.84375 24.933594 30.640625 C 24.914062 30.582031 24.890625 30.523438 24.863281 30.460938 C 24.828125 30.363281 24.828125 30.363281 24.789062 30.265625 C 24.738281 30.125 24.683594 29.988281 24.628906 29.851562 C 24.546875 29.632812 24.460938 29.414062 24.378906 29.199219 C 23.914062 27.984375 23.476562 26.878906 22.253906 26.269531 C 22.1875 26.238281 22.1875 26.238281 22.125 26.203125 C 21.480469 25.890625 20.808594 25.640625 20.144531 25.382812 C 19.96875 25.316406 19.792969 25.246094 19.621094 25.175781 C 19.539062 25.144531 19.539062 25.144531 19.457031 25.113281 C 19.257812 25.035156 19.09375 24.964844 18.925781 24.820312 C 18.875 24.6875 18.875 24.6875 18.882812 24.503906 C 19.070312 24.199219 19.347656 24.136719 19.671875 24.019531 C 19.773438 23.980469 19.773438 23.980469 19.875 23.9375 C 20.09375 23.855469 20.308594 23.773438 20.527344 23.691406 C 20.742188 23.609375 20.957031 23.527344 21.171875 23.445312 C 21.304688 23.394531 21.441406 23.34375 21.574219 23.292969 C 22.601562 22.898438 23.394531 22.28125 23.859375 21.273438 C 23.882812 21.226562 23.902344 21.183594 23.925781 21.132812 C 24.203125 20.527344 24.4375 19.90625 24.675781 19.28125 C 24.734375 19.125 24.796875 18.96875 24.855469 18.8125 C 24.882812 18.742188 24.882812 18.742188 24.910156 18.667969 C 25.117188 18.140625 25.117188 18.140625 25.460938 18.101562 Z M 25.460938 18.101562 "/>
<path style=" stroke:none;fill-rule:nonzero;fill:rgb(17.647059%,48.627451%,58.039218%);fill-opacity:1;" d="M 11.105469 7.90625 C 11.246094 7.90625 11.382812 7.902344 11.523438 7.902344 C 11.613281 7.902344 11.703125 7.898438 11.789062 7.898438 C 11.871094 7.898438 11.953125 7.898438 12.035156 7.898438 C 12.308594 7.949219 12.382812 8.039062 12.5625 8.25 C 12.644531 8.425781 12.644531 8.425781 12.707031 8.617188 C 12.742188 8.730469 12.742188 8.730469 12.777344 8.84375 C 12.804688 8.921875 12.828125 9.003906 12.855469 9.085938 C 12.882812 9.171875 12.910156 9.253906 12.9375 9.339844 C 13.007812 9.570312 13.082031 9.796875 13.152344 10.027344 C 13.230469 10.269531 13.308594 10.511719 13.382812 10.753906 C 13.554688 11.289062 13.726562 11.828125 13.894531 12.363281 C 13.960938 12.574219 14.027344 12.785156 14.09375 12.992188 C 14.46875 14.179688 14.46875 14.179688 14.652344 14.757812 C 14.878906 15.480469 15.105469 16.199219 15.34375 16.921875 C 15.382812 17.042969 15.421875 17.167969 15.460938 17.289062 C 15.476562 17.328125 15.488281 17.371094 15.5 17.410156 C 15.527344 17.492188 15.554688 17.570312 15.578125 17.652344 C 15.667969 17.917969 15.757812 18.1875 15.84375 18.457031 C 15.890625 18.59375 15.9375 18.734375 15.980469 18.875 C 16.011719 18.96875 16.011719 18.96875 16.042969 19.0625 C 16.15625 19.410156 16.21875 19.699219 16.1875 20.0625 C 16.074219 20.230469 16.007812 20.246094 15.8125 20.3125 C 15.628906 20.328125 15.441406 20.324219 15.257812 20.324219 C 15.207031 20.324219 15.15625 20.324219 15.105469 20.328125 C 15.03125 20.328125 15.03125 20.328125 14.957031 20.328125 C 14.914062 20.328125 14.867188 20.328125 14.824219 20.328125 C 14.6875 20.3125 14.6875 20.3125 14.375 20.1875 C 14.113281 19.53125 13.902344 18.859375 13.6875 18.1875 C 12.078125 18.1875 10.46875 18.1875 8.8125 18.1875 C 8.605469 18.828125 8.398438 19.464844 8.1875 20.125 C 7.835938 20.335938 7.835938 20.335938 7.59375 20.335938 C 7.519531 20.335938 7.519531 20.335938 7.441406 20.339844 C 7.386719 20.335938 7.335938 20.335938 7.28125 20.335938 C 7.203125 20.335938 7.203125 20.335938 7.121094 20.339844 C 6.824219 20.335938 6.617188 20.320312 6.375 20.125 C 6.171875 19.722656 6.476562 19.082031 6.605469 18.6875 C 6.628906 18.613281 6.652344 18.539062 6.675781 18.464844 C 6.726562 18.308594 6.777344 18.152344 6.828125 18 C 6.910156 17.75 6.992188 17.5 7.074219 17.25 C 7.171875 16.953125 7.265625 16.65625 7.363281 16.355469 C 7.574219 15.710938 7.78125 15.066406 7.988281 14.421875 C 8.046875 14.238281 8.105469 14.054688 8.164062 13.871094 C 8.375 13.214844 8.582031 12.558594 8.789062 11.902344 C 8.917969 11.488281 9.050781 11.070312 9.179688 10.65625 C 9.277344 10.347656 9.375 10.039062 9.472656 9.730469 C 9.53125 9.539062 9.59375 9.347656 9.652344 9.15625 C 9.683594 9.0625 9.710938 8.972656 9.738281 8.882812 C 9.777344 8.757812 9.816406 8.632812 9.855469 8.511719 C 9.878906 8.441406 9.898438 8.371094 9.921875 8.296875 C 10.144531 7.804688 10.640625 7.90625 11.105469 7.90625 Z M 11.1875 10.625 C 10.492188 12.796875 10.492188 12.796875 9.800781 14.972656 C 9.765625 15.074219 9.734375 15.175781 9.699219 15.277344 C 9.65625 15.421875 9.609375 15.5625 9.566406 15.703125 C 9.546875 15.765625 9.546875 15.765625 9.527344 15.828125 C 9.460938 16.035156 9.460938 16.035156 9.4375 16.25 C 10.65625 16.25 11.871094 16.25 13.125 16.25 C 12.53125 14.371094 11.925781 12.496094 11.3125 10.625 C 11.269531 10.625 11.230469 10.625 11.1875 10.625 Z M 11.1875 10.625 "/>
<path style=" stroke:none;fill-rule:nonzero;fill:rgb(17.647059%,49.019608%,57.647061%);fill-opacity:1;" d="M 19.542969 7.90625 C 19.597656 7.902344 19.652344 7.902344 19.707031 7.902344 C 19.789062 7.90625 19.789062 7.90625 19.875 7.90625 C 19.929688 7.90625 19.984375 7.90625 20.042969 7.902344 C 20.097656 7.902344 20.152344 7.902344 20.207031 7.90625 C 20.253906 7.90625 20.304688 7.90625 20.355469 7.90625 C 20.566406 7.953125 20.660156 8.035156 20.8125 8.1875 C 20.84375 8.359375 20.855469 8.492188 20.851562 8.664062 C 20.851562 8.738281 20.851562 8.738281 20.851562 8.8125 C 20.851562 8.972656 20.851562 9.132812 20.851562 9.296875 C 20.851562 9.414062 20.851562 9.527344 20.851562 9.644531 C 20.851562 9.960938 20.851562 10.273438 20.851562 10.589844 C 20.847656 10.917969 20.847656 11.25 20.851562 11.578125 C 20.851562 12.132812 20.847656 12.6875 20.847656 13.238281 C 20.84375 13.878906 20.84375 14.519531 20.84375 15.160156 C 20.84375 15.777344 20.84375 16.390625 20.84375 17.007812 C 20.84375 17.269531 20.839844 17.53125 20.84375 17.792969 C 20.84375 18.101562 20.839844 18.410156 20.839844 18.71875 C 20.839844 18.832031 20.839844 18.945312 20.839844 19.058594 C 20.839844 19.214844 20.839844 19.367188 20.835938 19.523438 C 20.835938 19.589844 20.835938 19.589844 20.839844 19.660156 C 20.835938 19.914062 20.808594 20.066406 20.625 20.25 C 20.394531 20.351562 20.128906 20.324219 19.878906 20.324219 C 19.835938 20.324219 19.789062 20.324219 19.746094 20.328125 C 19.488281 20.328125 19.289062 20.308594 19.0625 20.1875 C 18.910156 20.035156 18.921875 19.945312 18.917969 19.738281 C 18.921875 19.667969 18.921875 19.667969 18.921875 19.597656 C 18.921875 19.550781 18.917969 19.5 18.917969 19.453125 C 18.917969 19.289062 18.917969 19.125 18.917969 18.960938 C 18.917969 18.84375 18.917969 18.730469 18.917969 18.613281 C 18.914062 18.296875 18.914062 17.976562 18.914062 17.660156 C 18.914062 17.460938 18.914062 17.265625 18.914062 17.066406 C 18.910156 16.375 18.910156 15.683594 18.910156 14.992188 C 18.910156 14.347656 18.910156 13.703125 18.90625 13.058594 C 18.902344 12.507812 18.902344 11.953125 18.902344 11.402344 C 18.902344 11.070312 18.902344 10.738281 18.902344 10.410156 C 18.898438 10.097656 18.898438 9.789062 18.898438 9.476562 C 18.898438 9.363281 18.898438 9.25 18.898438 9.132812 C 18.898438 8.980469 18.898438 8.824219 18.898438 8.667969 C 18.898438 8.621094 18.898438 8.578125 18.898438 8.53125 C 18.902344 8.296875 18.921875 8.203125 19.085938 8.035156 C 19.257812 7.933594 19.347656 7.90625 19.542969 7.90625 Z M 19.542969 7.90625 "/>
</g>
</svg>
